<svg xmlns="http://www.w3.org/2000/svg" xmlns:xlink="http://www.w3.org/1999/xlink" width="160" zoomAndPan="magnify" viewBox="0 0 120 119.999999" height="160" preserveAspectRatio="xMidYMid meet" version="1.0"><defs><filter x="0%" y="0%" width="100%" height="100%" id="3b210a8165"><feColorMatrix values="0 0 0 0 1 0 0 0 0 1 0 0 0 0 1 0 0 0 1 0" color-interpolation-filters="sRGB"/></filter><g/><clipPath id="10132f24bd"><path d="M 4.605469 6.414062 L 16 6.414062 L 16 39.5625 L 4.605469 39.5625 Z M 4.605469 6.414062 " clip-rule="nonzero"/></clipPath><clipPath id="c292b6eeb1"><path d="M 30 6.414062 L 41.46875 6.414062 L 41.46875 39.5625 L 30 39.5625 Z M 30 6.414062 " clip-rule="nonzero"/></clipPath><clipPath id="363bbc9c74"><path d="M 17.722656 12.378906 L 28.347656 12.378906 L 28.347656 16 L 17.722656 16 Z M 17.722656 12.378906 " clip-rule="nonzero"/></clipPath><clipPath id="f1ec6675cd"><rect x="0" width="46" y="0" height="46"/></clipPath><clipPath id="fb1c83bcb9"><path d="M 29 5 L 34.601562 5 L 34.601562 11 L 29 11 Z M 29 5 " clip-rule="nonzero"/></clipPath><clipPath id="0b163f056e"><rect x="0" width="35" y="0" height="14"/></clipPath><mask id="63c955db82"><g filter="url(#3b210a8165)"><rect x="-12" width="144" fill="#000000" y="-12" height="143.999998" fill-opacity="0.25"/></g></mask><clipPath id="8c8ece2506"><path d="M 0.28125 0.0390625 L 34.601562 0.0390625 L 34.601562 13.71875 L 0.28125 13.71875 Z M 0.28125 0.0390625 " clip-rule="nonzero"/></clipPath><clipPath id="f826f48983"><rect x="0" width="35" y="0" height="14"/></clipPath><clipPath id="d89a0e2835"><rect x="0" width="35" y="0" height="14"/></clipPath></defs><rect x="-12" width="144" fill="#ffffff" y="-12" height="143.999998" fill-opacity="1"/><rect x="-12" width="144" fill="#000000" y="-12" height="143.999998" fill-opacity="1"/><g transform="matrix(1, 0, 0, 1, 14, 37)"><g clip-path="url(#f1ec6675cd)"><g clip-path="url(#10132f24bd)"><path fill="#ffffff" d="M 13.820312 39.585938 C 13.457031 39.582031 13.097656 39.546875 12.742188 39.476562 C 12.382812 39.40625 12.039062 39.300781 11.703125 39.160156 C 11.367188 39.023438 11.050781 38.851562 10.75 38.652344 C 10.445312 38.449219 10.167969 38.21875 9.910156 37.964844 C 9.65625 37.707031 9.425781 37.425781 9.222656 37.125 C 9.023438 36.824219 8.851562 36.503906 8.710938 36.171875 C 8.574219 35.835938 8.46875 35.488281 8.398438 35.132812 C 8.328125 34.777344 8.289062 34.417969 8.289062 34.054688 L 8.289062 28.527344 C 8.289062 26.277344 7.199219 24.84375 6.449219 24.84375 C 6.203125 24.84375 5.96875 24.796875 5.742188 24.703125 C 5.515625 24.609375 5.316406 24.476562 5.144531 24.300781 C 4.972656 24.128906 4.839844 23.929688 4.746094 23.703125 C 4.652344 23.480469 4.605469 23.242188 4.605469 23 C 4.605469 22.753906 4.652344 22.519531 4.746094 22.292969 C 4.839844 22.066406 4.972656 21.867188 5.144531 21.695312 C 5.316406 21.523438 5.515625 21.390625 5.742188 21.296875 C 5.96875 21.203125 6.203125 21.15625 6.449219 21.15625 C 7.199219 21.15625 8.289062 19.71875 8.289062 17.472656 L 8.289062 11.941406 C 8.289062 11.578125 8.328125 11.21875 8.398438 10.863281 C 8.46875 10.507812 8.574219 10.164062 8.710938 9.828125 C 8.851562 9.492188 9.023438 9.175781 9.222656 8.871094 C 9.425781 8.570312 9.65625 8.292969 9.910156 8.035156 C 10.167969 7.777344 10.445312 7.550781 10.75 7.347656 C 11.050781 7.144531 11.367188 6.976562 11.703125 6.835938 C 12.039062 6.699219 12.382812 6.59375 12.742188 6.519531 C 13.097656 6.449219 13.457031 6.414062 13.820312 6.414062 C 14.0625 6.414062 14.296875 6.460938 14.523438 6.554688 C 14.75 6.648438 14.949219 6.78125 15.121094 6.953125 C 15.292969 7.125 15.425781 7.324219 15.519531 7.550781 C 15.613281 7.777344 15.660156 8.011719 15.660156 8.257812 C 15.660156 8.5 15.613281 8.738281 15.519531 8.960938 C 15.425781 9.1875 15.292969 9.386719 15.121094 9.558594 C 14.949219 9.734375 14.75 9.867188 14.523438 9.960938 C 14.296875 10.054688 14.0625 10.101562 13.820312 10.101562 C 13.574219 10.101562 13.339844 10.148438 13.113281 10.238281 C 12.886719 10.332031 12.6875 10.464844 12.515625 10.640625 C 12.34375 10.8125 12.210938 11.011719 12.117188 11.238281 C 12.023438 11.464844 11.976562 11.699219 11.976562 11.941406 L 11.976562 17.472656 C 12 18.472656 11.855469 19.445312 11.542969 20.394531 C 11.226562 21.34375 10.761719 22.210938 10.140625 23 C 10.761719 23.785156 11.226562 24.652344 11.542969 25.601562 C 11.855469 26.550781 12 27.527344 11.976562 28.527344 L 11.976562 34.054688 C 11.976562 34.300781 12.023438 34.535156 12.117188 34.761719 C 12.210938 34.988281 12.34375 35.1875 12.515625 35.359375 C 12.6875 35.53125 12.886719 35.664062 13.113281 35.757812 C 13.339844 35.851562 13.574219 35.898438 13.820312 35.898438 C 14.0625 35.898438 14.296875 35.945312 14.523438 36.039062 C 14.75 36.132812 14.949219 36.265625 15.121094 36.4375 C 15.292969 36.609375 15.425781 36.808594 15.519531 37.035156 C 15.613281 37.261719 15.660156 37.496094 15.660156 37.742188 C 15.660156 37.984375 15.613281 38.222656 15.519531 38.445312 C 15.425781 38.671875 15.292969 38.871094 15.121094 39.042969 C 14.949219 39.21875 14.75 39.351562 14.523438 39.445312 C 14.296875 39.539062 14.0625 39.585938 13.820312 39.585938 Z M 13.820312 39.585938 " fill-opacity="1" fill-rule="nonzero"/></g><g clip-path="url(#c292b6eeb1)"><path fill="#ffffff" d="M 32.246094 39.585938 C 32.003906 39.585938 31.765625 39.539062 31.542969 39.445312 C 31.316406 39.351562 31.117188 39.21875 30.945312 39.042969 C 30.769531 38.871094 30.636719 38.671875 30.542969 38.445312 C 30.449219 38.222656 30.402344 37.984375 30.402344 37.742188 C 30.402344 37.496094 30.449219 37.261719 30.542969 37.035156 C 30.636719 36.808594 30.769531 36.609375 30.945312 36.4375 C 31.117188 36.265625 31.316406 36.132812 31.542969 36.039062 C 31.765625 35.945312 32.003906 35.898438 32.246094 35.898438 C 32.492188 35.898438 32.726562 35.851562 32.953125 35.757812 C 33.175781 35.664062 33.375 35.53125 33.550781 35.359375 C 33.722656 35.1875 33.855469 34.988281 33.949219 34.761719 C 34.042969 34.535156 34.089844 34.300781 34.089844 34.054688 L 34.089844 28.527344 C 34.0625 27.527344 34.207031 26.550781 34.523438 25.601562 C 34.839844 24.652344 35.304688 23.785156 35.921875 23 C 35.304688 22.210938 34.839844 21.34375 34.523438 20.394531 C 34.207031 19.445312 34.0625 18.472656 34.089844 17.472656 L 34.089844 11.941406 C 34.089844 11.699219 34.042969 11.464844 33.949219 11.238281 C 33.855469 11.011719 33.722656 10.8125 33.550781 10.640625 C 33.375 10.464844 33.175781 10.332031 32.953125 10.238281 C 32.726562 10.148438 32.492188 10.101562 32.246094 10.101562 C 32.003906 10.101562 31.765625 10.054688 31.542969 9.960938 C 31.316406 9.867188 31.117188 9.734375 30.945312 9.558594 C 30.769531 9.386719 30.636719 9.1875 30.542969 8.960938 C 30.449219 8.738281 30.402344 8.5 30.402344 8.257812 C 30.402344 8.011719 30.449219 7.777344 30.542969 7.550781 C 30.636719 7.324219 30.769531 7.125 30.945312 6.953125 C 31.117188 6.78125 31.316406 6.648438 31.542969 6.554688 C 31.765625 6.460938 32.003906 6.414062 32.246094 6.414062 C 32.609375 6.414062 32.96875 6.449219 33.324219 6.519531 C 33.679688 6.59375 34.027344 6.699219 34.359375 6.835938 C 34.695312 6.976562 35.015625 7.144531 35.316406 7.347656 C 35.617188 7.550781 35.898438 7.777344 36.152344 8.035156 C 36.410156 8.292969 36.640625 8.570312 36.839844 8.871094 C 37.042969 9.175781 37.214844 9.492188 37.351562 9.828125 C 37.492188 10.164062 37.597656 10.507812 37.667969 10.863281 C 37.738281 11.21875 37.773438 11.578125 37.773438 11.941406 L 37.773438 17.472656 C 37.773438 19.71875 38.867188 21.15625 39.617188 21.15625 C 39.863281 21.15625 40.097656 21.203125 40.324219 21.296875 C 40.546875 21.390625 40.746094 21.523438 40.921875 21.695312 C 41.09375 21.867188 41.226562 22.066406 41.320312 22.292969 C 41.414062 22.519531 41.460938 22.753906 41.460938 23 C 41.460938 23.242188 41.414062 23.480469 41.320312 23.703125 C 41.226562 23.929688 41.09375 24.128906 40.921875 24.300781 C 40.746094 24.476562 40.546875 24.609375 40.324219 24.703125 C 40.097656 24.796875 39.863281 24.84375 39.617188 24.84375 C 38.867188 24.84375 37.773438 26.277344 37.773438 28.527344 L 37.773438 34.054688 C 37.773438 34.417969 37.738281 34.777344 37.667969 35.132812 C 37.597656 35.488281 37.492188 35.835938 37.351562 36.171875 C 37.214844 36.503906 37.042969 36.824219 36.839844 37.125 C 36.640625 37.425781 36.410156 37.707031 36.152344 37.964844 C 35.898438 38.21875 35.617188 38.449219 35.316406 38.652344 C 35.015625 38.851562 34.695312 39.023438 34.359375 39.160156 C 34.027344 39.300781 33.679688 39.40625 33.324219 39.476562 C 32.96875 39.546875 32.609375 39.582031 32.246094 39.585938 Z M 32.246094 39.585938 " fill-opacity="1" fill-rule="nonzero"/></g><g clip-path="url(#363bbc9c74)"><path fill="#ffffff" d="M 17.902344 13.375 C 17.800781 13.273438 17.746094 13.152344 17.742188 13.007812 C 17.738281 12.863281 17.789062 12.738281 17.890625 12.636719 C 17.992188 12.53125 18.113281 12.480469 18.261719 12.476562 C 18.40625 12.472656 18.53125 12.523438 18.636719 12.625 C 19.078125 13.042969 19.570312 13.390625 20.117188 13.671875 C 20.660156 13.949219 21.230469 14.144531 21.828125 14.261719 C 22.429688 14.375 23.03125 14.402344 23.640625 14.34375 C 24.246094 14.289062 24.835938 14.144531 25.402344 13.917969 C 26.160156 13.617188 26.835938 13.1875 27.429688 12.625 C 27.53125 12.523438 27.65625 12.472656 27.804688 12.476562 C 27.949219 12.480469 28.070312 12.53125 28.171875 12.636719 C 28.273438 12.738281 28.324219 12.863281 28.320312 13.007812 C 28.320312 13.152344 28.265625 13.277344 28.160156 13.375 C 27.816406 13.699219 27.445312 13.992188 27.046875 14.246094 C 26.648438 14.5 26.230469 14.71875 25.792969 14.890625 C 25.351562 15.066406 24.902344 15.199219 24.4375 15.289062 C 23.972656 15.378906 23.503906 15.421875 23.03125 15.421875 C 22.558594 15.421875 22.089844 15.378906 21.625 15.289062 C 21.160156 15.199219 20.710938 15.066406 20.269531 14.890625 C 19.832031 14.71875 19.414062 14.5 19.015625 14.246094 C 18.617188 13.992188 18.246094 13.699219 17.902344 13.375 Z M 17.902344 13.375 " fill-opacity="1" fill-rule="nonzero"/></g></g></g><g transform="matrix(1, 0, 0, 1, 65, 47)"><g clip-path="url(#0b163f056e)"><g fill="#ffffff" fill-opacity="1"><g transform="translate(0.503126, 10.615999)"><g><path d="M 3.125 0.125 C 2.570312 0.125 2.097656 0.03125 1.703125 -0.15625 C 1.304688 -0.34375 0.96875 -0.59375 0.6875 -0.90625 L 1.234375 -1.390625 C 1.484375 -1.128906 1.757812 -0.925781 2.0625 -0.78125 C 2.363281 -0.632812 2.726562 -0.5625 3.15625 -0.5625 C 3.5625 -0.5625 3.894531 -0.632812 4.15625 -0.78125 C 4.414062 -0.925781 4.546875 -1.15625 4.546875 -1.46875 C 4.546875 -1.601562 4.519531 -1.71875 4.46875 -1.8125 C 4.425781 -1.90625 4.359375 -1.976562 4.265625 -2.03125 C 4.179688 -2.09375 4.082031 -2.132812 3.96875 -2.15625 C 3.863281 -2.1875 3.75 -2.210938 3.625 -2.234375 L 2.796875 -2.359375 C 2.609375 -2.390625 2.40625 -2.425781 2.1875 -2.46875 C 1.976562 -2.519531 1.785156 -2.597656 1.609375 -2.703125 C 1.429688 -2.804688 1.28125 -2.945312 1.15625 -3.125 C 1.039062 -3.300781 0.984375 -3.535156 0.984375 -3.828125 C 0.984375 -4.097656 1.035156 -4.328125 1.140625 -4.515625 C 1.242188 -4.710938 1.390625 -4.875 1.578125 -5 C 1.773438 -5.132812 2.003906 -5.234375 2.265625 -5.296875 C 2.523438 -5.367188 2.804688 -5.40625 3.109375 -5.40625 C 3.585938 -5.40625 4 -5.328125 4.34375 -5.171875 C 4.695312 -5.023438 5.003906 -4.816406 5.265625 -4.546875 L 4.734375 -4.046875 C 4.671875 -4.128906 4.59375 -4.207031 4.5 -4.28125 C 4.40625 -4.363281 4.289062 -4.4375 4.15625 -4.5 C 4.019531 -4.5625 3.863281 -4.613281 3.6875 -4.65625 C 3.507812 -4.695312 3.304688 -4.71875 3.078125 -4.71875 C 2.660156 -4.71875 2.34375 -4.644531 2.125 -4.5 C 1.90625 -4.351562 1.796875 -4.144531 1.796875 -3.875 C 1.796875 -3.738281 1.816406 -3.625 1.859375 -3.53125 C 1.910156 -3.4375 1.976562 -3.363281 2.0625 -3.3125 C 2.15625 -3.257812 2.257812 -3.21875 2.375 -3.1875 C 2.488281 -3.15625 2.601562 -3.128906 2.71875 -3.109375 L 3.546875 -2.984375 C 3.742188 -2.960938 3.945312 -2.925781 4.15625 -2.875 C 4.363281 -2.820312 4.554688 -2.742188 4.734375 -2.640625 C 4.910156 -2.535156 5.054688 -2.394531 5.171875 -2.21875 C 5.296875 -2.039062 5.359375 -1.8125 5.359375 -1.53125 C 5.359375 -1 5.15625 -0.585938 4.75 -0.296875 C 4.34375 -0.015625 3.800781 0.125 3.125 0.125 Z M 3.125 0.125 "/></g></g></g><g fill="#ffffff" fill-opacity="1"><g transform="translate(6.133615, 10.615999)"><g><path d="M 1.078125 -7.578125 L 1.890625 -7.578125 L 1.890625 -2.796875 L 1.9375 -2.796875 L 2.859375 -3.65625 L 4.609375 -5.28125 L 5.625 -5.28125 L 3.421875 -3.21875 L 5.875 0 L 4.859375 0 L 2.796875 -2.75 L 1.890625 -1.90625 L 1.890625 0 L 1.078125 0 Z M 1.078125 -7.578125 "/></g></g></g><g fill="#ffffff" fill-opacity="1"><g transform="translate(11.764104, 10.615999)"><g><path d="M 3.15625 0.125 C 2.78125 0.125 2.4375 0.0625 2.125 -0.0625 C 1.820312 -0.195312 1.5625 -0.382812 1.34375 -0.625 C 1.132812 -0.875 0.972656 -1.164062 0.859375 -1.5 C 0.742188 -1.832031 0.6875 -2.207031 0.6875 -2.625 C 0.6875 -3.050781 0.742188 -3.429688 0.859375 -3.765625 C 0.984375 -4.109375 1.148438 -4.398438 1.359375 -4.640625 C 1.566406 -4.890625 1.816406 -5.078125 2.109375 -5.203125 C 2.410156 -5.335938 2.742188 -5.40625 3.109375 -5.40625 C 3.460938 -5.40625 3.785156 -5.335938 4.078125 -5.203125 C 4.367188 -5.078125 4.613281 -4.898438 4.8125 -4.671875 C 5.019531 -4.441406 5.175781 -4.171875 5.28125 -3.859375 C 5.394531 -3.546875 5.453125 -3.203125 5.453125 -2.828125 L 5.453125 -2.4375 L 1.546875 -2.4375 L 1.546875 -2.1875 C 1.546875 -1.957031 1.582031 -1.742188 1.65625 -1.546875 C 1.726562 -1.347656 1.832031 -1.175781 1.96875 -1.03125 C 2.113281 -0.882812 2.285156 -0.769531 2.484375 -0.6875 C 2.691406 -0.613281 2.914062 -0.578125 3.15625 -0.578125 C 3.507812 -0.578125 3.816406 -0.660156 4.078125 -0.828125 C 4.335938 -0.992188 4.535156 -1.21875 4.671875 -1.5 L 5.28125 -1.09375 C 5.125 -0.738281 4.863281 -0.445312 4.5 -0.21875 C 4.132812 0.0078125 3.6875 0.125 3.15625 0.125 Z M 3.109375 -4.734375 C 2.890625 -4.734375 2.679688 -4.691406 2.484375 -4.609375 C 2.296875 -4.523438 2.128906 -4.410156 1.984375 -4.265625 C 1.847656 -4.117188 1.738281 -3.945312 1.65625 -3.75 C 1.582031 -3.5625 1.546875 -3.351562 1.546875 -3.125 L 1.546875 -3.046875 L 4.578125 -3.046875 L 4.578125 -3.15625 C 4.578125 -3.394531 4.539062 -3.609375 4.46875 -3.796875 C 4.394531 -3.984375 4.296875 -4.144531 4.171875 -4.28125 C 4.046875 -4.425781 3.890625 -4.535156 3.703125 -4.609375 C 3.523438 -4.691406 3.328125 -4.734375 3.109375 -4.734375 Z M 3.109375 -4.734375 "/></g></g></g><g fill="#ffffff" fill-opacity="1"><g transform="translate(17.394594, 10.615999)"><g><path d="M 4.3125 -0.859375 L 4.28125 -0.859375 C 4.226562 -0.734375 4.160156 -0.609375 4.078125 -0.484375 C 3.992188 -0.367188 3.890625 -0.265625 3.765625 -0.171875 C 3.648438 -0.0859375 3.507812 -0.0195312 3.34375 0.03125 C 3.175781 0.09375 2.988281 0.125 2.78125 0.125 C 2.21875 0.125 1.769531 -0.0507812 1.4375 -0.40625 C 1.101562 -0.757812 0.9375 -1.253906 0.9375 -1.890625 L 0.9375 -5.28125 L 1.765625 -5.28125 L 1.765625 -2.03125 C 1.765625 -1.550781 1.867188 -1.191406 2.078125 -0.953125 C 2.285156 -0.722656 2.597656 -0.609375 3.015625 -0.609375 C 3.171875 -0.609375 3.328125 -0.628906 3.484375 -0.671875 C 3.640625 -0.710938 3.78125 -0.769531 3.90625 -0.84375 C 4.03125 -0.925781 4.128906 -1.03125 4.203125 -1.15625 C 4.273438 -1.28125 4.3125 -1.429688 4.3125 -1.609375 L 4.3125 -5.28125 L 5.140625 -5.28125 L 5.140625 0 L 4.3125 0 Z M 3.5625 -7.828125 L 4.703125 -6.359375 L 4.234375 -6.046875 L 3.046875 -7.25 L 1.84375 -6.046875 L 1.40625 -6.359375 L 2.546875 -7.828125 Z M 3.5625 -7.828125 "/></g></g></g><g fill="#ffffff" fill-opacity="1"><g transform="translate(23.025083, 10.615999)"><g><path d="M 3.0625 0.125 C 2.695312 0.125 2.363281 0.0625 2.0625 -0.0625 C 1.769531 -0.195312 1.519531 -0.382812 1.3125 -0.625 C 1.101562 -0.875 0.941406 -1.164062 0.828125 -1.5 C 0.722656 -1.832031 0.671875 -2.210938 0.671875 -2.640625 C 0.671875 -3.054688 0.722656 -3.429688 0.828125 -3.765625 C 0.941406 -4.109375 1.101562 -4.398438 1.3125 -4.640625 C 1.519531 -4.890625 1.769531 -5.078125 2.0625 -5.203125 C 2.363281 -5.335938 2.695312 -5.40625 3.0625 -5.40625 C 3.4375 -5.40625 3.769531 -5.335938 4.0625 -5.203125 C 4.363281 -5.078125 4.617188 -4.890625 4.828125 -4.640625 C 5.035156 -4.398438 5.191406 -4.109375 5.296875 -3.765625 C 5.410156 -3.429688 5.46875 -3.054688 5.46875 -2.640625 C 5.46875 -2.210938 5.410156 -1.832031 5.296875 -1.5 C 5.191406 -1.164062 5.035156 -0.875 4.828125 -0.625 C 4.617188 -0.382812 4.363281 -0.195312 4.0625 -0.0625 C 3.769531 0.0625 3.4375 0.125 3.0625 0.125 Z M 3.0625 -0.578125 C 3.519531 -0.578125 3.890625 -0.710938 4.171875 -0.984375 C 4.453125 -1.265625 4.59375 -1.691406 4.59375 -2.265625 L 4.59375 -3.015625 C 4.59375 -3.585938 4.453125 -4.007812 4.171875 -4.28125 C 3.890625 -4.5625 3.519531 -4.703125 3.0625 -4.703125 C 2.613281 -4.703125 2.25 -4.5625 1.96875 -4.28125 C 1.6875 -4.007812 1.546875 -3.585938 1.546875 -3.015625 L 1.546875 -2.265625 C 1.546875 -1.691406 1.6875 -1.265625 1.96875 -0.984375 C 2.25 -0.710938 2.613281 -0.578125 3.0625 -0.578125 Z M 3.0625 -0.578125 "/></g></g></g><g clip-path="url(#fb1c83bcb9)"><g fill="#ffffff" fill-opacity="1"><g transform="translate(28.655572, 10.615999)"><g><path d="M 3.125 0.125 C 2.570312 0.125 2.097656 0.03125 1.703125 -0.15625 C 1.304688 -0.34375 0.96875 -0.59375 0.6875 -0.90625 L 1.234375 -1.390625 C 1.484375 -1.128906 1.757812 -0.925781 2.0625 -0.78125 C 2.363281 -0.632812 2.726562 -0.5625 3.15625 -0.5625 C 3.5625 -0.5625 3.894531 -0.632812 4.15625 -0.78125 C 4.414062 -0.925781 4.546875 -1.15625 4.546875 -1.46875 C 4.546875 -1.601562 4.519531 -1.71875 4.46875 -1.8125 C 4.425781 -1.90625 4.359375 -1.976562 4.265625 -2.03125 C 4.179688 -2.09375 4.082031 -2.132812 3.96875 -2.15625 C 3.863281 -2.1875 3.75 -2.210938 3.625 -2.234375 L 2.796875 -2.359375 C 2.609375 -2.390625 2.40625 -2.425781 2.1875 -2.46875 C 1.976562 -2.519531 1.785156 -2.597656 1.609375 -2.703125 C 1.429688 -2.804688 1.28125 -2.945312 1.15625 -3.125 C 1.039062 -3.300781 0.984375 -3.535156 0.984375 -3.828125 C 0.984375 -4.097656 1.035156 -4.328125 1.140625 -4.515625 C 1.242188 -4.710938 1.390625 -4.875 1.578125 -5 C 1.773438 -5.132812 2.003906 -5.234375 2.265625 -5.296875 C 2.523438 -5.367188 2.804688 -5.40625 3.109375 -5.40625 C 3.585938 -5.40625 4 -5.328125 4.34375 -5.171875 C 4.695312 -5.023438 5.003906 -4.816406 5.265625 -4.546875 L 4.734375 -4.046875 C 4.671875 -4.128906 4.59375 -4.207031 4.5 -4.28125 C 4.40625 -4.363281 4.289062 -4.4375 4.15625 -4.5 C 4.019531 -4.5625 3.863281 -4.613281 3.6875 -4.65625 C 3.507812 -4.695312 3.304688 -4.71875 3.078125 -4.71875 C 2.660156 -4.71875 2.34375 -4.644531 2.125 -4.5 C 1.90625 -4.351562 1.796875 -4.144531 1.796875 -3.875 C 1.796875 -3.738281 1.816406 -3.625 1.859375 -3.53125 C 1.910156 -3.4375 1.976562 -3.363281 2.0625 -3.3125 C 2.15625 -3.257812 2.257812 -3.21875 2.375 -3.1875 C 2.488281 -3.15625 2.601562 -3.128906 2.71875 -3.109375 L 3.546875 -2.984375 C 3.742188 -2.960938 3.945312 -2.925781 4.15625 -2.875 C 4.363281 -2.820312 4.554688 -2.742188 4.734375 -2.640625 C 4.910156 -2.535156 5.054688 -2.394531 5.171875 -2.21875 C 5.296875 -2.039062 5.359375 -1.8125 5.359375 -1.53125 C 5.359375 -1 5.15625 -0.585938 4.75 -0.296875 C 4.34375 -0.015625 3.800781 0.125 3.125 0.125 Z M 3.125 0.125 "/></g></g></g></g></g></g><g mask="url(#63c955db82)"><g transform="matrix(1, 0, 0, 1, 65, 59)"><g clip-path="url(#d89a0e2835)"><g clip-path="url(#8c8ece2506)"><g><g clip-path="url(#f826f48983)"><g fill="#ffffff" fill-opacity="1"><g transform="translate(0.503126, 10.823998)"><g><path d="M 2.546875 0 L 0.65625 -5.28125 L 1.484375 -5.28125 L 2.234375 -3.0625 L 3.0625 -0.6875 L 3.09375 -0.6875 L 3.921875 -3.0625 L 4.671875 -5.28125 L 5.484375 -5.28125 L 3.59375 0 Z M 2.546875 0 "/></g></g></g><g fill="#ffffff" fill-opacity="1"><g transform="translate(6.133615, 10.823998)"><g><path d="M 3.15625 0.125 C 2.78125 0.125 2.4375 0.0625 2.125 -0.0625 C 1.820312 -0.195312 1.5625 -0.382812 1.34375 -0.625 C 1.132812 -0.875 0.972656 -1.164062 0.859375 -1.5 C 0.742188 -1.832031 0.6875 -2.207031 0.6875 -2.625 C 0.6875 -3.050781 0.742188 -3.429688 0.859375 -3.765625 C 0.984375 -4.109375 1.148438 -4.398438 1.359375 -4.640625 C 1.566406 -4.890625 1.816406 -5.078125 2.109375 -5.203125 C 2.410156 -5.335938 2.742188 -5.40625 3.109375 -5.40625 C 3.460938 -5.40625 3.785156 -5.335938 4.078125 -5.203125 C 4.367188 -5.078125 4.613281 -4.898438 4.8125 -4.671875 C 5.019531 -4.441406 5.175781 -4.171875 5.28125 -3.859375 C 5.394531 -3.546875 5.453125 -3.203125 5.453125 -2.828125 L 5.453125 -2.4375 L 1.546875 -2.4375 L 1.546875 -2.1875 C 1.546875 -1.957031 1.582031 -1.742188 1.65625 -1.546875 C 1.726562 -1.347656 1.832031 -1.175781 1.96875 -1.03125 C 2.113281 -0.882812 2.285156 -0.769531 2.484375 -0.6875 C 2.691406 -0.613281 2.914062 -0.578125 3.15625 -0.578125 C 3.507812 -0.578125 3.816406 -0.660156 4.078125 -0.828125 C 4.335938 -0.992188 4.535156 -1.21875 4.671875 -1.5 L 5.28125 -1.09375 C 5.125 -0.738281 4.863281 -0.445312 4.5 -0.21875 C 4.132812 0.0078125 3.6875 0.125 3.15625 0.125 Z M 3.109375 -4.734375 C 2.890625 -4.734375 2.679688 -4.691406 2.484375 -4.609375 C 2.296875 -4.523438 2.128906 -4.410156 1.984375 -4.265625 C 1.847656 -4.117188 1.738281 -3.945312 1.65625 -3.75 C 1.582031 -3.5625 1.546875 -3.351562 1.546875 -3.125 L 1.546875 -3.046875 L 4.578125 -3.046875 L 4.578125 -3.15625 C 4.578125 -3.394531 4.539062 -3.609375 4.46875 -3.796875 C 4.394531 -3.984375 4.296875 -4.144531 4.171875 -4.28125 C 4.046875 -4.425781 3.890625 -4.535156 3.703125 -4.609375 C 3.523438 -4.691406 3.328125 -4.734375 3.109375 -4.734375 Z M 3.109375 -4.734375 "/></g></g></g><g fill="#ffffff" fill-opacity="1"><g transform="translate(11.764104, 10.823998)"><g><path d="M 3.125 0.125 C 2.570312 0.125 2.097656 0.03125 1.703125 -0.15625 C 1.304688 -0.34375 0.96875 -0.59375 0.6875 -0.90625 L 1.234375 -1.390625 C 1.484375 -1.128906 1.757812 -0.925781 2.0625 -0.78125 C 2.363281 -0.632812 2.726562 -0.5625 3.15625 -0.5625 C 3.5625 -0.5625 3.894531 -0.632812 4.15625 -0.78125 C 4.414062 -0.925781 4.546875 -1.15625 4.546875 -1.46875 C 4.546875 -1.601562 4.519531 -1.71875 4.46875 -1.8125 C 4.425781 -1.90625 4.359375 -1.976562 4.265625 -2.03125 C 4.179688 -2.09375 4.082031 -2.132812 3.96875 -2.15625 C 3.863281 -2.1875 3.75 -2.210938 3.625 -2.234375 L 2.796875 -2.359375 C 2.609375 -2.390625 2.40625 -2.425781 2.1875 -2.46875 C 1.976562 -2.519531 1.785156 -2.597656 1.609375 -2.703125 C 1.429688 -2.804688 1.28125 -2.945312 1.15625 -3.125 C 1.039062 -3.300781 0.984375 -3.535156 0.984375 -3.828125 C 0.984375 -4.097656 1.035156 -4.328125 1.140625 -4.515625 C 1.242188 -4.710938 1.390625 -4.875 1.578125 -5 C 1.773438 -5.132812 2.003906 -5.234375 2.265625 -5.296875 C 2.523438 -5.367188 2.804688 -5.40625 3.109375 -5.40625 C 3.585938 -5.40625 4 -5.328125 4.34375 -5.171875 C 4.695312 -5.023438 5.003906 -4.816406 5.265625 -4.546875 L 4.734375 -4.046875 C 4.671875 -4.128906 4.59375 -4.207031 4.5 -4.28125 C 4.40625 -4.363281 4.289062 -4.4375 4.15625 -4.5 C 4.019531 -4.5625 3.863281 -4.613281 3.6875 -4.65625 C 3.507812 -4.695312 3.304688 -4.71875 3.078125 -4.71875 C 2.660156 -4.71875 2.34375 -4.644531 2.125 -4.5 C 1.90625 -4.351562 1.796875 -4.144531 1.796875 -3.875 C 1.796875 -3.738281 1.816406 -3.625 1.859375 -3.53125 C 1.910156 -3.4375 1.976562 -3.363281 2.0625 -3.3125 C 2.15625 -3.257812 2.257812 -3.21875 2.375 -3.1875 C 2.488281 -3.15625 2.601562 -3.128906 2.71875 -3.109375 L 3.546875 -2.984375 C 3.742188 -2.960938 3.945312 -2.925781 4.15625 -2.875 C 4.363281 -2.820312 4.554688 -2.742188 4.734375 -2.640625 C 4.910156 -2.535156 5.054688 -2.394531 5.171875 -2.21875 C 5.296875 -2.039062 5.359375 -1.8125 5.359375 -1.53125 C 5.359375 -1 5.15625 -0.585938 4.75 -0.296875 C 4.34375 -0.015625 3.800781 0.125 3.125 0.125 Z M 3.125 0.125 "/></g></g></g><g fill="#ffffff" fill-opacity="1"><g transform="translate(17.394594, 10.823998)"><g><path d="M 3.125 0.125 C 2.570312 0.125 2.097656 0.03125 1.703125 -0.15625 C 1.304688 -0.34375 0.96875 -0.59375 0.6875 -0.90625 L 1.234375 -1.390625 C 1.484375 -1.128906 1.757812 -0.925781 2.0625 -0.78125 C 2.363281 -0.632812 2.726562 -0.5625 3.15625 -0.5625 C 3.5625 -0.5625 3.894531 -0.632812 4.15625 -0.78125 C 4.414062 -0.925781 4.546875 -1.15625 4.546875 -1.46875 C 4.546875 -1.601562 4.519531 -1.71875 4.46875 -1.8125 C 4.425781 -1.90625 4.359375 -1.976562 4.265625 -2.03125 C 4.179688 -2.09375 4.082031 -2.132812 3.96875 -2.15625 C 3.863281 -2.1875 3.75 -2.210938 3.625 -2.234375 L 2.796875 -2.359375 C 2.609375 -2.390625 2.40625 -2.425781 2.1875 -2.46875 C 1.976562 -2.519531 1.785156 -2.597656 1.609375 -2.703125 C 1.429688 -2.804688 1.28125 -2.945312 1.15625 -3.125 C 1.039062 -3.300781 0.984375 -3.535156 0.984375 -3.828125 C 0.984375 -4.097656 1.035156 -4.328125 1.140625 -4.515625 C 1.242188 -4.710938 1.390625 -4.875 1.578125 -5 C 1.773438 -5.132812 2.003906 -5.234375 2.265625 -5.296875 C 2.523438 -5.367188 2.804688 -5.40625 3.109375 -5.40625 C 3.585938 -5.40625 4 -5.328125 4.34375 -5.171875 C 4.695312 -5.023438 5.003906 -4.816406 5.265625 -4.546875 L 4.734375 -4.046875 C 4.671875 -4.128906 4.59375 -4.207031 4.5 -4.28125 C 4.40625 -4.363281 4.289062 -4.4375 4.15625 -4.5 C 4.019531 -4.5625 3.863281 -4.613281 3.6875 -4.65625 C 3.507812 -4.695312 3.304688 -4.71875 3.078125 -4.71875 C 2.660156 -4.71875 2.34375 -4.644531 2.125 -4.5 C 1.90625 -4.351562 1.796875 -4.144531 1.796875 -3.875 C 1.796875 -3.738281 1.816406 -3.625 1.859375 -3.53125 C 1.910156 -3.4375 1.976562 -3.363281 2.0625 -3.3125 C 2.15625 -3.257812 2.257812 -3.21875 2.375 -3.1875 C 2.488281 -3.15625 2.601562 -3.128906 2.71875 -3.109375 L 3.546875 -2.984375 C 3.742188 -2.960938 3.945312 -2.925781 4.15625 -2.875 C 4.363281 -2.820312 4.554688 -2.742188 4.734375 -2.640625 C 4.910156 -2.535156 5.054688 -2.394531 5.171875 -2.21875 C 5.296875 -2.039062 5.359375 -1.8125 5.359375 -1.53125 C 5.359375 -1 5.15625 -0.585938 4.75 -0.296875 C 4.34375 -0.015625 3.800781 0.125 3.125 0.125 Z M 3.125 0.125 "/></g></g></g><g fill="#ffffff" fill-opacity="1"><g transform="translate(23.025083, 10.823998)"><g><path d="M 3.15625 0.125 C 2.78125 0.125 2.4375 0.0625 2.125 -0.0625 C 1.820312 -0.195312 1.5625 -0.382812 1.34375 -0.625 C 1.132812 -0.875 0.972656 -1.164062 0.859375 -1.5 C 0.742188 -1.832031 0.6875 -2.207031 0.6875 -2.625 C 0.6875 -3.050781 0.742188 -3.429688 0.859375 -3.765625 C 0.984375 -4.109375 1.148438 -4.398438 1.359375 -4.640625 C 1.566406 -4.890625 1.816406 -5.078125 2.109375 -5.203125 C 2.410156 -5.335938 2.742188 -5.40625 3.109375 -5.40625 C 3.460938 -5.40625 3.785156 -5.335938 4.078125 -5.203125 C 4.367188 -5.078125 4.613281 -4.898438 4.8125 -4.671875 C 5.019531 -4.441406 5.175781 -4.171875 5.28125 -3.859375 C 5.394531 -3.546875 5.453125 -3.203125 5.453125 -2.828125 L 5.453125 -2.4375 L 1.546875 -2.4375 L 1.546875 -2.1875 C 1.546875 -1.957031 1.582031 -1.742188 1.65625 -1.546875 C 1.726562 -1.347656 1.832031 -1.175781 1.96875 -1.03125 C 2.113281 -0.882812 2.285156 -0.769531 2.484375 -0.6875 C 2.691406 -0.613281 2.914062 -0.578125 3.15625 -0.578125 C 3.507812 -0.578125 3.816406 -0.660156 4.078125 -0.828125 C 4.335938 -0.992188 4.535156 -1.21875 4.671875 -1.5 L 5.28125 -1.09375 C 5.125 -0.738281 4.863281 -0.445312 4.5 -0.21875 C 4.132812 0.0078125 3.6875 0.125 3.15625 0.125 Z M 3.109375 -4.734375 C 2.890625 -4.734375 2.679688 -4.691406 2.484375 -4.609375 C 2.296875 -4.523438 2.128906 -4.410156 1.984375 -4.265625 C 1.847656 -4.117188 1.738281 -3.945312 1.65625 -3.75 C 1.582031 -3.5625 1.546875 -3.351562 1.546875 -3.125 L 1.546875 -3.046875 L 4.578125 -3.046875 L 4.578125 -3.15625 C 4.578125 -3.394531 4.539062 -3.609375 4.46875 -3.796875 C 4.394531 -3.984375 4.296875 -4.144531 4.171875 -4.28125 C 4.046875 -4.425781 3.890625 -4.535156 3.703125 -4.609375 C 3.523438 -4.691406 3.328125 -4.734375 3.109375 -4.734375 Z M 3.109375 -4.734375 "/></g></g></g><g fill="#ffffff" fill-opacity="1"><g transform="translate(28.655572, 10.823998)"><g><path d="M 0.8125 -0.703125 L 2.65625 -0.703125 L 2.65625 -6.875 L 0.8125 -6.875 L 0.8125 -7.578125 L 3.484375 -7.578125 L 3.484375 -0.703125 L 5.328125 -0.703125 L 5.328125 0 L 0.8125 0 Z M 0.8125 -0.703125 "/></g></g></g></g></g></g></g></g></g></svg>