<svg xmlns="http://www.w3.org/2000/svg" xmlns:xlink="http://www.w3.org/1999/xlink" width="160" zoomAndPan="magnify" viewBox="0 0 120 119.999999" height="160" preserveAspectRatio="xMidYMid meet" version="1.0"><defs><clipPath id="42c43672a7"><path d="M 5.847656 8.664062 L 23 8.664062 L 23 59.296875 L 5.847656 59.296875 Z M 5.847656 8.664062 " clip-rule="nonzero"/></clipPath><clipPath id="4f01a71d57"><path d="M 45 8.664062 L 62.164062 8.664062 L 62.164062 59.296875 L 45 59.296875 Z M 45 8.664062 " clip-rule="nonzero"/></clipPath><clipPath id="277a851630"><path d="M 25.890625 17.777344 L 42.117188 17.777344 L 42.117188 23 L 25.890625 23 Z M 25.890625 17.777344 " clip-rule="nonzero"/></clipPath><clipPath id="0b1c6acb99"><rect x="0" width="68" y="0" height="68"/></clipPath></defs><rect x="-12" width="144" fill="#ffffff" y="-12" height="143.999998" fill-opacity="1"/><rect x="-12" width="144" fill="#60463b" y="-12" height="143.999998" fill-opacity="1"/><g transform="matrix(1, 0, 0, 1, 26, 26)"><g clip-path="url(#0b1c6acb99)"><g clip-path="url(#42c43672a7)"><path fill="#f6f1d1" d="M 19.925781 59.332031 C 19.371094 59.332031 18.820312 59.277344 18.277344 59.171875 C 17.734375 59.0625 17.207031 58.902344 16.695312 58.6875 C 16.183594 58.476562 15.695312 58.214844 15.234375 57.90625 C 14.773438 57.601562 14.347656 57.25 13.957031 56.859375 C 13.5625 56.464844 13.214844 56.039062 12.90625 55.578125 C 12.597656 55.117188 12.335938 54.632812 12.125 54.117188 C 11.914062 53.605469 11.753906 53.078125 11.644531 52.535156 C 11.535156 51.992188 11.480469 51.441406 11.480469 50.886719 L 11.480469 42.445312 C 11.480469 39.007812 9.8125 36.8125 8.664062 36.8125 C 8.292969 36.8125 7.933594 36.742188 7.585938 36.597656 C 7.242188 36.457031 6.9375 36.253906 6.675781 35.988281 C 6.410156 35.726562 6.207031 35.421875 6.0625 35.074219 C 5.921875 34.730469 5.851562 34.371094 5.851562 34 C 5.851562 33.625 5.921875 33.265625 6.0625 32.921875 C 6.207031 32.578125 6.410156 32.273438 6.675781 32.007812 C 6.9375 31.746094 7.242188 31.539062 7.585938 31.398438 C 7.933594 31.253906 8.292969 31.183594 8.664062 31.183594 C 9.8125 31.183594 11.480469 28.988281 11.480469 25.554688 L 11.480469 17.109375 C 11.480469 16.554688 11.535156 16.003906 11.644531 15.460938 C 11.753906 14.917969 11.914062 14.390625 12.125 13.878906 C 12.335938 13.367188 12.597656 12.878906 12.90625 12.417969 C 13.214844 11.957031 13.5625 11.53125 13.957031 11.140625 C 14.347656 10.746094 14.773438 10.398438 15.234375 10.089844 C 15.695312 9.78125 16.183594 9.523438 16.695312 9.308594 C 17.207031 9.097656 17.734375 8.9375 18.277344 8.828125 C 18.820312 8.71875 19.371094 8.664062 19.925781 8.664062 C 20.296875 8.664062 20.65625 8.734375 21.003906 8.878906 C 21.347656 9.019531 21.652344 9.222656 21.914062 9.488281 C 22.179688 9.753906 22.382812 10.058594 22.527344 10.402344 C 22.667969 10.746094 22.738281 11.105469 22.738281 11.480469 C 22.738281 11.851562 22.667969 12.210938 22.527344 12.554688 C 22.382812 12.902344 22.179688 13.207031 21.914062 13.46875 C 21.652344 13.734375 21.347656 13.9375 21.003906 14.078125 C 20.65625 14.222656 20.296875 14.292969 19.925781 14.292969 C 19.550781 14.292969 19.191406 14.367188 18.847656 14.507812 C 18.503906 14.652344 18.199219 14.855469 17.933594 15.117188 C 17.671875 15.382812 17.46875 15.6875 17.324219 16.03125 C 17.179688 16.375 17.109375 16.734375 17.109375 17.109375 L 17.109375 25.554688 C 17.148438 27.082031 16.925781 28.570312 16.445312 30.019531 C 15.964844 31.472656 15.253906 32.796875 14.308594 34 C 15.253906 35.199219 15.964844 36.527344 16.445312 37.976562 C 16.925781 39.425781 17.148438 40.914062 17.109375 42.445312 L 17.109375 50.886719 C 17.109375 51.261719 17.179688 51.621094 17.324219 51.964844 C 17.46875 52.3125 17.671875 52.613281 17.933594 52.878906 C 18.199219 53.144531 18.503906 53.347656 18.847656 53.488281 C 19.191406 53.632812 19.550781 53.703125 19.925781 53.703125 C 20.296875 53.703125 20.65625 53.773438 21.003906 53.917969 C 21.347656 54.0625 21.652344 54.265625 21.914062 54.527344 C 22.179688 54.792969 22.382812 55.097656 22.527344 55.441406 C 22.667969 55.785156 22.738281 56.144531 22.738281 56.519531 C 22.738281 56.890625 22.667969 57.25 22.527344 57.597656 C 22.382812 57.941406 22.179688 58.246094 21.914062 58.507812 C 21.652344 58.773438 21.347656 58.976562 21.003906 59.121094 C 20.65625 59.261719 20.296875 59.332031 19.925781 59.332031 Z M 19.925781 59.332031 " fill-opacity="1" fill-rule="nonzero"/></g><g clip-path="url(#4f01a71d57)"><path fill="#f6f1d1" d="M 48.074219 59.332031 C 47.703125 59.332031 47.34375 59.261719 46.996094 59.121094 C 46.652344 58.976562 46.347656 58.773438 46.085938 58.507812 C 45.820312 58.246094 45.617188 57.941406 45.472656 57.597656 C 45.332031 57.25 45.257812 56.890625 45.257812 56.519531 C 45.257812 56.144531 45.332031 55.785156 45.472656 55.441406 C 45.617188 55.097656 45.820312 54.792969 46.085938 54.527344 C 46.347656 54.265625 46.652344 54.0625 46.996094 53.917969 C 47.34375 53.773438 47.703125 53.703125 48.074219 53.703125 C 48.449219 53.703125 48.808594 53.632812 49.152344 53.488281 C 49.496094 53.347656 49.800781 53.144531 50.066406 52.878906 C 50.328125 52.613281 50.53125 52.3125 50.675781 51.964844 C 50.816406 51.621094 50.890625 51.261719 50.890625 50.886719 L 50.890625 42.445312 C 50.851562 40.917969 51.070312 39.425781 51.554688 37.976562 C 52.035156 36.527344 52.746094 35.199219 53.691406 34 C 52.746094 32.796875 52.035156 31.472656 51.554688 30.019531 C 51.070312 28.570312 50.851562 27.082031 50.890625 25.554688 L 50.890625 17.109375 C 50.890625 16.734375 50.816406 16.375 50.675781 16.03125 C 50.53125 15.6875 50.328125 15.382812 50.066406 15.117188 C 49.800781 14.855469 49.496094 14.652344 49.152344 14.507812 C 48.808594 14.367188 48.449219 14.292969 48.074219 14.292969 C 47.703125 14.292969 47.34375 14.222656 46.996094 14.078125 C 46.652344 13.9375 46.347656 13.734375 46.085938 13.46875 C 45.820312 13.207031 45.617188 12.902344 45.472656 12.554688 C 45.332031 12.210938 45.257812 11.851562 45.257812 11.480469 C 45.257812 11.105469 45.332031 10.746094 45.472656 10.402344 C 45.617188 10.058594 45.820312 9.753906 46.085938 9.488281 C 46.347656 9.222656 46.652344 9.019531 46.996094 8.878906 C 47.34375 8.734375 47.703125 8.664062 48.074219 8.664062 C 48.628906 8.664062 49.179688 8.71875 49.722656 8.828125 C 50.265625 8.9375 50.792969 9.097656 51.304688 9.308594 C 51.816406 9.523438 52.304688 9.78125 52.765625 10.089844 C 53.226562 10.398438 53.652344 10.746094 54.042969 11.140625 C 54.433594 11.53125 54.785156 11.957031 55.09375 12.417969 C 55.402344 12.878906 55.660156 13.367188 55.875 13.878906 C 56.085938 14.390625 56.246094 14.917969 56.355469 15.460938 C 56.464844 16.003906 56.519531 16.554688 56.519531 17.109375 L 56.519531 25.554688 C 56.519531 28.988281 58.1875 31.183594 59.335938 31.183594 C 59.707031 31.183594 60.066406 31.253906 60.410156 31.398438 C 60.757812 31.539062 61.0625 31.746094 61.324219 32.007812 C 61.589844 32.273438 61.792969 32.578125 61.933594 32.921875 C 62.078125 33.265625 62.148438 33.625 62.148438 34 C 62.148438 34.371094 62.078125 34.730469 61.933594 35.074219 C 61.792969 35.421875 61.589844 35.726562 61.324219 35.988281 C 61.0625 36.253906 60.757812 36.457031 60.410156 36.597656 C 60.066406 36.742188 59.707031 36.8125 59.335938 36.8125 C 58.1875 36.8125 56.519531 39.007812 56.519531 42.445312 L 56.519531 50.886719 C 56.519531 51.441406 56.464844 51.992188 56.355469 52.535156 C 56.246094 53.078125 56.085938 53.605469 55.875 54.117188 C 55.660156 54.632812 55.402344 55.117188 55.09375 55.578125 C 54.785156 56.039062 54.433594 56.464844 54.042969 56.859375 C 53.652344 57.25 53.226562 57.601562 52.765625 57.90625 C 52.304688 58.214844 51.816406 58.476562 51.304688 58.6875 C 50.792969 58.902344 50.265625 59.0625 49.722656 59.171875 C 49.179688 59.277344 48.628906 59.332031 48.074219 59.332031 Z M 48.074219 59.332031 " fill-opacity="1" fill-rule="nonzero"/></g><g clip-path="url(#277a851630)"><path fill="#ced7c7" d="M 26.164062 19.296875 C 26.003906 19.144531 25.921875 18.957031 25.917969 18.738281 C 25.914062 18.515625 25.988281 18.328125 26.144531 18.167969 C 26.296875 18.007812 26.488281 17.929688 26.707031 17.925781 C 26.929688 17.921875 27.121094 17.996094 27.28125 18.148438 C 27.960938 18.789062 28.714844 19.324219 29.542969 19.75 C 30.375 20.171875 31.246094 20.472656 32.160156 20.648438 C 33.078125 20.824219 34 20.867188 34.929688 20.777344 C 35.855469 20.691406 36.753906 20.472656 37.621094 20.128906 C 38.777344 19.667969 39.808594 19.007812 40.714844 18.148438 C 40.875 17.996094 41.066406 17.921875 41.285156 17.925781 C 41.507812 17.929688 41.699219 18.007812 41.851562 18.167969 C 42.007812 18.324219 42.082031 18.515625 42.078125 18.738281 C 42.074219 18.957031 41.992188 19.144531 41.832031 19.296875 C 41.308594 19.796875 40.742188 20.238281 40.132812 20.628906 C 39.527344 21.019531 38.886719 21.347656 38.214844 21.613281 C 37.542969 21.882812 36.855469 22.085938 36.144531 22.222656 C 35.4375 22.359375 34.71875 22.425781 33.996094 22.425781 C 33.277344 22.425781 32.558594 22.359375 31.851562 22.222656 C 31.140625 22.085938 30.453125 21.882812 29.78125 21.613281 C 29.109375 21.347656 28.46875 21.019531 27.863281 20.628906 C 27.253906 20.238281 26.6875 19.796875 26.164062 19.296875 Z M 26.164062 19.296875 " fill-opacity="1" fill-rule="nonzero"/></g></g></g></svg>