<svg xmlns="http://www.w3.org/2000/svg" xmlns:xlink="http://www.w3.org/1999/xlink" width="160" zoomAndPan="magnify" viewBox="0 0 120 119.999999" height="160" preserveAspectRatio="xMidYMid meet" version="1.0"><defs><clipPath id="af52d57b60"><path d="M 0.847656 0.664062 L 18 0.664062 L 18 51.296875 L 0.847656 51.296875 Z M 0.847656 0.664062 " clip-rule="nonzero"/></clipPath><clipPath id="4fed73e774"><path d="M 40 0.664062 L 57.164062 0.664062 L 57.164062 51.296875 L 40 51.296875 Z M 40 0.664062 " clip-rule="nonzero"/></clipPath><clipPath id="6f1cb28844"><path d="M 20.890625 9.777344 L 37.117188 9.777344 L 37.117188 15 L 20.890625 15 Z M 20.890625 9.777344 " clip-rule="nonzero"/></clipPath><clipPath id="c48f21b040"><rect x="0" width="58" y="0" height="52"/></clipPath></defs><rect x="-12" width="144" fill="#ffffff" y="-12" height="143.999998" fill-opacity="1"/><rect x="-12" width="144" fill="#ffffff" y="-12" height="143.999998" fill-opacity="1"/><g transform="matrix(1, 0, 0, 1, 31, 34)"><g clip-path="url(#c48f21b040)"><g clip-path="url(#af52d57b60)"><path fill="#000000" d="M 14.929688 51.296875 C 14.375 51.296875 13.824219 51.242188 13.28125 51.132812 C 12.738281 51.027344 12.207031 50.867188 11.695312 50.652344 C 11.183594 50.441406 10.699219 50.179688 10.238281 49.875 C 9.777344 49.566406 9.351562 49.214844 8.957031 48.824219 C 8.566406 48.433594 8.214844 48.007812 7.90625 47.546875 C 7.597656 47.085938 7.339844 46.597656 7.125 46.085938 C 6.914062 45.574219 6.753906 45.046875 6.644531 44.503906 C 6.535156 43.960938 6.480469 43.414062 6.480469 42.859375 L 6.480469 34.421875 C 6.480469 30.988281 4.8125 28.792969 3.664062 28.792969 C 3.292969 28.792969 2.933594 28.722656 2.589844 28.578125 C 2.242188 28.4375 1.9375 28.234375 1.675781 27.96875 C 1.410156 27.707031 1.207031 27.402344 1.0625 27.058594 C 0.921875 26.714844 0.851562 26.355469 0.851562 25.980469 C 0.851562 25.609375 0.921875 25.25 1.0625 24.90625 C 1.207031 24.558594 1.410156 24.253906 1.675781 23.992188 C 1.9375 23.726562 2.242188 23.523438 2.589844 23.382812 C 2.933594 23.238281 3.292969 23.167969 3.664062 23.167969 C 4.8125 23.167969 6.480469 20.976562 6.480469 17.542969 L 6.480469 9.101562 C 6.480469 8.550781 6.535156 8 6.644531 7.457031 C 6.753906 6.914062 6.914062 6.386719 7.125 5.875 C 7.339844 5.363281 7.597656 4.878906 7.90625 4.417969 C 8.214844 3.957031 8.566406 3.53125 8.957031 3.136719 C 9.351562 2.746094 9.777344 2.398438 10.238281 2.089844 C 10.699219 1.78125 11.183594 1.519531 11.695312 1.308594 C 12.207031 1.097656 12.738281 0.9375 13.28125 0.828125 C 13.824219 0.71875 14.375 0.664062 14.929688 0.664062 C 15.300781 0.664062 15.660156 0.734375 16.003906 0.878906 C 16.351562 1.019531 16.65625 1.222656 16.917969 1.488281 C 17.183594 1.75 17.386719 2.054688 17.527344 2.402344 C 17.671875 2.746094 17.742188 3.105469 17.742188 3.476562 C 17.742188 3.851562 17.671875 4.207031 17.527344 4.554688 C 17.386719 4.898438 17.183594 5.203125 16.917969 5.464844 C 16.65625 5.730469 16.351562 5.933594 16.003906 6.074219 C 15.660156 6.21875 15.300781 6.289062 14.929688 6.289062 C 14.554688 6.289062 14.195312 6.363281 13.851562 6.503906 C 13.503906 6.648438 13.199219 6.851562 12.9375 7.113281 C 12.671875 7.378906 12.46875 7.683594 12.328125 8.027344 C 12.183594 8.371094 12.113281 8.730469 12.113281 9.101562 L 12.113281 17.542969 C 12.152344 19.070312 11.929688 20.558594 11.449219 22.007812 C 10.96875 23.457031 10.253906 24.78125 9.308594 25.980469 C 10.253906 27.179688 10.96875 28.507812 11.449219 29.957031 C 11.929688 31.40625 12.152344 32.894531 12.113281 34.421875 L 12.113281 42.859375 C 12.113281 43.230469 12.183594 43.589844 12.328125 43.9375 C 12.46875 44.28125 12.671875 44.585938 12.9375 44.847656 C 13.199219 45.113281 13.503906 45.316406 13.851562 45.457031 C 14.195312 45.601562 14.554688 45.671875 14.929688 45.671875 C 15.300781 45.671875 15.660156 45.742188 16.003906 45.886719 C 16.351562 46.027344 16.65625 46.230469 16.917969 46.496094 C 17.183594 46.761719 17.386719 47.0625 17.527344 47.410156 C 17.671875 47.753906 17.742188 48.113281 17.742188 48.484375 C 17.742188 48.859375 17.671875 49.21875 17.527344 49.5625 C 17.386719 49.90625 17.183594 50.210938 16.917969 50.472656 C 16.65625 50.738281 16.351562 50.941406 16.003906 51.082031 C 15.660156 51.226562 15.300781 51.296875 14.929688 51.296875 Z M 14.929688 51.296875 " fill-opacity="1" fill-rule="nonzero"/></g><g clip-path="url(#4fed73e774)"><path fill="#000000" d="M 43.085938 51.296875 C 42.710938 51.296875 42.351562 51.226562 42.007812 51.082031 C 41.660156 50.941406 41.355469 50.738281 41.09375 50.472656 C 40.828125 50.210938 40.625 49.90625 40.484375 49.5625 C 40.339844 49.21875 40.269531 48.859375 40.269531 48.484375 C 40.269531 48.113281 40.339844 47.753906 40.484375 47.410156 C 40.625 47.0625 40.828125 46.761719 41.09375 46.496094 C 41.355469 46.230469 41.660156 46.027344 42.007812 45.886719 C 42.351562 45.742188 42.710938 45.671875 43.085938 45.671875 C 43.457031 45.671875 43.816406 45.601562 44.160156 45.457031 C 44.507812 45.316406 44.8125 45.113281 45.074219 44.847656 C 45.339844 44.585938 45.542969 44.28125 45.683594 43.9375 C 45.828125 43.589844 45.898438 43.230469 45.898438 42.859375 L 45.898438 34.421875 C 45.859375 32.894531 46.082031 31.40625 46.5625 29.957031 C 47.042969 28.507812 47.757812 27.179688 48.703125 25.980469 C 47.757812 24.78125 47.042969 23.457031 46.5625 22.007812 C 46.082031 20.558594 45.859375 19.070312 45.898438 17.542969 L 45.898438 9.101562 C 45.898438 8.730469 45.828125 8.371094 45.683594 8.027344 C 45.542969 7.683594 45.339844 7.378906 45.074219 7.113281 C 44.8125 6.851562 44.507812 6.648438 44.160156 6.503906 C 43.816406 6.363281 43.457031 6.289062 43.085938 6.289062 C 42.710938 6.289062 42.351562 6.21875 42.007812 6.074219 C 41.660156 5.933594 41.355469 5.730469 41.09375 5.464844 C 40.828125 5.203125 40.625 4.898438 40.484375 4.554688 C 40.339844 4.207031 40.269531 3.851562 40.269531 3.476562 C 40.269531 3.105469 40.339844 2.746094 40.484375 2.402344 C 40.625 2.054688 40.828125 1.75 41.09375 1.488281 C 41.355469 1.222656 41.660156 1.019531 42.007812 0.878906 C 42.351562 0.734375 42.710938 0.664062 43.085938 0.664062 C 43.636719 0.664062 44.1875 0.71875 44.730469 0.828125 C 45.273438 0.9375 45.804688 1.097656 46.316406 1.308594 C 46.828125 1.519531 47.3125 1.78125 47.773438 2.089844 C 48.234375 2.398438 48.664062 2.746094 49.054688 3.136719 C 49.445312 3.53125 49.796875 3.957031 50.105469 4.417969 C 50.414062 4.878906 50.671875 5.363281 50.886719 5.875 C 51.097656 6.386719 51.257812 6.914062 51.367188 7.457031 C 51.476562 8 51.53125 8.550781 51.53125 9.101562 L 51.53125 17.542969 C 51.53125 20.976562 53.199219 23.167969 54.347656 23.167969 C 54.71875 23.167969 55.078125 23.238281 55.425781 23.382812 C 55.769531 23.523438 56.074219 23.726562 56.335938 23.992188 C 56.601562 24.253906 56.804688 24.558594 56.949219 24.90625 C 57.089844 25.25 57.160156 25.609375 57.164062 25.980469 C 57.160156 26.355469 57.089844 26.714844 56.949219 27.058594 C 56.804688 27.402344 56.601562 27.707031 56.335938 27.96875 C 56.074219 28.234375 55.769531 28.4375 55.425781 28.578125 C 55.078125 28.722656 54.71875 28.792969 54.347656 28.792969 C 53.199219 28.792969 51.53125 30.988281 51.53125 34.421875 L 51.53125 42.859375 C 51.53125 43.414062 51.476562 43.960938 51.367188 44.503906 C 51.257812 45.046875 51.097656 45.574219 50.886719 46.085938 C 50.671875 46.597656 50.414062 47.085938 50.105469 47.546875 C 49.796875 48.007812 49.445312 48.433594 49.054688 48.824219 C 48.664062 49.214844 48.234375 49.566406 47.773438 49.875 C 47.3125 50.179688 46.828125 50.441406 46.316406 50.652344 C 45.804688 50.867188 45.273438 51.027344 44.730469 51.132812 C 44.1875 51.242188 43.636719 51.296875 43.085938 51.296875 Z M 43.085938 51.296875 " fill-opacity="1" fill-rule="nonzero"/></g><g clip-path="url(#6f1cb28844)"><path fill="#000000" d="M 21.164062 11.265625 C 21.003906 11.109375 20.921875 10.921875 20.917969 10.699219 C 20.914062 10.476562 20.988281 10.285156 21.144531 10.125 C 21.296875 9.964844 21.488281 9.882812 21.710938 9.878906 C 21.929688 9.875 22.121094 9.953125 22.28125 10.105469 C 22.960938 10.753906 23.714844 11.289062 24.546875 11.71875 C 25.375 12.148438 26.25 12.449219 27.164062 12.625 C 28.082031 12.800781 29.003906 12.847656 29.933594 12.757812 C 30.863281 12.667969 31.761719 12.449219 32.628906 12.101562 C 33.785156 11.636719 34.820312 10.972656 35.722656 10.105469 C 35.882812 9.953125 36.074219 9.875 36.296875 9.878906 C 36.519531 9.882812 36.707031 9.964844 36.863281 10.125 C 37.019531 10.285156 37.09375 10.476562 37.089844 10.699219 C 37.085938 10.921875 37.003906 11.109375 36.839844 11.265625 C 36.316406 11.765625 35.75 12.210938 35.144531 12.605469 C 34.535156 13 33.894531 13.328125 33.222656 13.601562 C 32.550781 13.871094 31.863281 14.074219 31.152344 14.210938 C 30.441406 14.347656 29.726562 14.417969 29.003906 14.417969 C 28.28125 14.417969 27.5625 14.347656 26.855469 14.210938 C 26.144531 14.074219 25.453125 13.871094 24.78125 13.601562 C 24.113281 13.328125 23.472656 13 22.863281 12.605469 C 22.253906 12.210938 21.6875 11.765625 21.164062 11.265625 Z M 21.164062 11.265625 " fill-opacity="1" fill-rule="nonzero"/></g></g></g></svg>