<svg xmlns="http://www.w3.org/2000/svg" xmlns:xlink="http://www.w3.org/1999/xlink" width="160" zoomAndPan="magnify" viewBox="0 0 120 119.999999" height="160" preserveAspectRatio="xMidYMid meet" version="1.0"><defs><filter x="0%" y="0%" width="100%" height="100%" id="ab69a03765"><feColorMatrix values="0 0 0 0 1 0 0 0 0 1 0 0 0 0 1 0 0 0 1 0" color-interpolation-filters="sRGB"/></filter><g/><clipPath id="0ec4fed367"><path d="M 0.605469 0.414062 L 12 0.414062 L 12 33.5625 L 0.605469 33.5625 Z M 0.605469 0.414062 " clip-rule="nonzero"/></clipPath><clipPath id="9bc05d4b0f"><path d="M 26 0.414062 L 37.46875 0.414062 L 37.46875 33.5625 L 26 33.5625 Z M 26 0.414062 " clip-rule="nonzero"/></clipPath><clipPath id="ad573fd6e9"><path d="M 13.722656 6.378906 L 24.347656 6.378906 L 24.347656 10 L 13.722656 10 Z M 13.722656 6.378906 " clip-rule="nonzero"/></clipPath><clipPath id="f14b5c17cb"><rect x="0" width="38" y="0" height="34"/></clipPath><clipPath id="b9e3b9729b"><path d="M 29 5 L 34.601562 5 L 34.601562 11 L 29 11 Z M 29 5 " clip-rule="nonzero"/></clipPath><clipPath id="baa38825a2"><rect x="0" width="35" y="0" height="14"/></clipPath><mask id="0f20c0f19b"><g filter="url(#ab69a03765)"><rect x="-12" width="144" fill="#000000" y="-12" height="143.999998" fill-opacity="0.25"/></g></mask><clipPath id="3bf07d999d"><path d="M 0.28125 0.0390625 L 34.601562 0.0390625 L 34.601562 13.71875 L 0.28125 13.71875 Z M 0.28125 0.0390625 " clip-rule="nonzero"/></clipPath><clipPath id="7e572f2ee1"><rect x="0" width="35" y="0" height="14"/></clipPath><clipPath id="5cd0bf69c3"><rect x="0" width="35" y="0" height="14"/></clipPath></defs><rect x="-12" width="144" fill="#ffffff" y="-12" height="143.999998" fill-opacity="1"/><rect x="-12" width="144" fill="#ffffff" y="-12" height="143.999998" fill-opacity="1"/><g transform="matrix(1, 0, 0, 1, 18, 43)"><g clip-path="url(#f14b5c17cb)"><g clip-path="url(#0ec4fed367)"><path fill="#000000" d="M 9.820312 33.5625 C 9.457031 33.5625 9.097656 33.523438 8.742188 33.453125 C 8.386719 33.382812 8.039062 33.277344 7.707031 33.140625 C 7.371094 33 7.050781 32.828125 6.75 32.628906 C 6.449219 32.425781 6.167969 32.199219 5.914062 31.941406 C 5.65625 31.683594 5.425781 31.40625 5.226562 31.105469 C 5.023438 30.804688 4.851562 30.484375 4.714844 30.148438 C 4.574219 29.816406 4.46875 29.46875 4.398438 29.113281 C 4.328125 28.757812 4.292969 28.398438 4.292969 28.035156 L 4.292969 22.511719 C 4.292969 20.265625 3.199219 18.828125 2.449219 18.828125 C 2.203125 18.828125 1.96875 18.78125 1.742188 18.6875 C 1.515625 18.59375 1.316406 18.460938 1.144531 18.289062 C 0.972656 18.117188 0.839844 17.917969 0.746094 17.691406 C 0.652344 17.464844 0.605469 17.230469 0.605469 16.988281 C 0.605469 16.742188 0.652344 16.507812 0.746094 16.28125 C 0.839844 16.058594 0.972656 15.859375 1.144531 15.683594 C 1.316406 15.511719 1.515625 15.378906 1.742188 15.285156 C 1.96875 15.191406 2.203125 15.144531 2.449219 15.144531 C 3.199219 15.144531 4.292969 13.710938 4.292969 11.464844 L 4.292969 5.9375 C 4.292969 5.574219 4.328125 5.21875 4.398438 4.863281 C 4.46875 4.503906 4.574219 4.160156 4.714844 3.824219 C 4.851562 3.492188 5.023438 3.171875 5.226562 2.871094 C 5.425781 2.570312 5.65625 2.289062 5.914062 2.035156 C 6.167969 1.777344 6.449219 1.546875 6.75 1.347656 C 7.050781 1.144531 7.371094 0.976562 7.707031 0.835938 C 8.039062 0.699219 8.386719 0.59375 8.742188 0.519531 C 9.097656 0.449219 9.457031 0.414062 9.820312 0.414062 C 10.066406 0.414062 10.300781 0.460938 10.527344 0.554688 C 10.753906 0.648438 10.953125 0.78125 11.125 0.953125 C 11.296875 1.125 11.429688 1.324219 11.523438 1.550781 C 11.617188 1.777344 11.664062 2.011719 11.664062 2.253906 C 11.664062 2.5 11.617188 2.734375 11.523438 2.960938 C 11.429688 3.1875 11.296875 3.386719 11.125 3.558594 C 10.953125 3.730469 10.753906 3.863281 10.527344 3.957031 C 10.300781 4.050781 10.066406 4.097656 9.820312 4.097656 C 9.578125 4.097656 9.339844 4.144531 9.117188 4.238281 C 8.890625 4.332031 8.691406 4.464844 8.515625 4.636719 C 8.34375 4.808594 8.210938 5.007812 8.117188 5.234375 C 8.023438 5.460938 7.976562 5.695312 7.976562 5.9375 L 7.976562 11.464844 C 8.003906 12.460938 7.859375 13.4375 7.542969 14.386719 C 7.226562 15.335938 6.761719 16.203125 6.144531 16.988281 C 6.761719 17.773438 7.226562 18.640625 7.542969 19.589844 C 7.859375 20.539062 8.003906 21.511719 7.976562 22.511719 L 7.976562 28.035156 C 7.976562 28.28125 8.023438 28.515625 8.117188 28.742188 C 8.210938 28.96875 8.34375 29.164062 8.515625 29.339844 C 8.691406 29.511719 8.890625 29.644531 9.117188 29.738281 C 9.339844 29.832031 9.578125 29.878906 9.820312 29.878906 C 10.066406 29.878906 10.300781 29.925781 10.527344 30.019531 C 10.753906 30.113281 10.953125 30.246094 11.125 30.417969 C 11.296875 30.589844 11.429688 30.789062 11.523438 31.015625 C 11.617188 31.242188 11.664062 31.476562 11.664062 31.71875 C 11.664062 31.964844 11.617188 32.199219 11.523438 32.425781 C 11.429688 32.648438 11.296875 32.847656 11.125 33.023438 C 10.953125 33.195312 10.753906 33.328125 10.527344 33.421875 C 10.300781 33.515625 10.066406 33.5625 9.820312 33.5625 Z M 9.820312 33.5625 " fill-opacity="1" fill-rule="nonzero"/></g><g clip-path="url(#9bc05d4b0f)"><path fill="#000000" d="M 28.253906 33.5625 C 28.007812 33.5625 27.773438 33.515625 27.546875 33.421875 C 27.320312 33.328125 27.121094 33.195312 26.949219 33.023438 C 26.777344 32.847656 26.644531 32.648438 26.550781 32.425781 C 26.457031 32.199219 26.410156 31.964844 26.410156 31.71875 C 26.410156 31.476562 26.457031 31.242188 26.550781 31.015625 C 26.644531 30.789062 26.777344 30.589844 26.949219 30.417969 C 27.121094 30.246094 27.320312 30.113281 27.546875 30.019531 C 27.773438 29.925781 28.007812 29.878906 28.253906 29.878906 C 28.496094 29.878906 28.730469 29.832031 28.957031 29.738281 C 29.183594 29.644531 29.382812 29.511719 29.554688 29.339844 C 29.730469 29.164062 29.863281 28.96875 29.957031 28.742188 C 30.050781 28.515625 30.097656 28.28125 30.097656 28.035156 L 30.097656 22.511719 C 30.070312 21.511719 30.214844 20.539062 30.53125 19.589844 C 30.84375 18.640625 31.3125 17.773438 31.929688 16.988281 C 31.3125 16.203125 30.84375 15.335938 30.53125 14.386719 C 30.214844 13.4375 30.070312 12.460938 30.097656 11.464844 L 30.097656 5.9375 C 30.097656 5.695312 30.050781 5.460938 29.957031 5.234375 C 29.863281 5.007812 29.730469 4.808594 29.554688 4.636719 C 29.382812 4.464844 29.183594 4.332031 28.957031 4.238281 C 28.730469 4.144531 28.496094 4.097656 28.253906 4.097656 C 28.007812 4.097656 27.773438 4.050781 27.546875 3.957031 C 27.320312 3.863281 27.121094 3.730469 26.949219 3.558594 C 26.777344 3.386719 26.644531 3.1875 26.550781 2.960938 C 26.457031 2.734375 26.410156 2.5 26.410156 2.253906 C 26.410156 2.011719 26.457031 1.777344 26.550781 1.550781 C 26.644531 1.324219 26.777344 1.125 26.949219 0.953125 C 27.121094 0.78125 27.320312 0.648438 27.546875 0.554688 C 27.773438 0.460938 28.007812 0.414062 28.253906 0.414062 C 28.617188 0.414062 28.976562 0.449219 29.332031 0.519531 C 29.6875 0.59375 30.03125 0.699219 30.367188 0.835938 C 30.703125 0.976562 31.023438 1.144531 31.324219 1.347656 C 31.625 1.546875 31.90625 1.777344 32.160156 2.035156 C 32.417969 2.289062 32.648438 2.570312 32.847656 2.871094 C 33.050781 3.171875 33.222656 3.492188 33.359375 3.824219 C 33.5 4.160156 33.605469 4.503906 33.675781 4.863281 C 33.746094 5.21875 33.78125 5.574219 33.78125 5.9375 L 33.78125 11.464844 C 33.78125 13.710938 34.875 15.144531 35.625 15.144531 C 35.871094 15.144531 36.105469 15.191406 36.332031 15.285156 C 36.554688 15.378906 36.757812 15.511719 36.929688 15.683594 C 37.101562 15.859375 37.234375 16.058594 37.328125 16.28125 C 37.421875 16.507812 37.46875 16.742188 37.46875 16.988281 C 37.46875 17.230469 37.421875 17.464844 37.328125 17.691406 C 37.234375 17.917969 37.101562 18.117188 36.929688 18.289062 C 36.757812 18.460938 36.554688 18.59375 36.332031 18.6875 C 36.105469 18.78125 35.871094 18.828125 35.625 18.828125 C 34.875 18.828125 33.78125 20.265625 33.78125 22.511719 L 33.78125 28.035156 C 33.78125 28.398438 33.746094 28.757812 33.675781 29.113281 C 33.605469 29.46875 33.5 29.816406 33.359375 30.148438 C 33.222656 30.484375 33.050781 30.804688 32.847656 31.105469 C 32.648438 31.40625 32.417969 31.683594 32.160156 31.941406 C 31.90625 32.199219 31.625 32.425781 31.324219 32.628906 C 31.023438 32.828125 30.703125 33 30.367188 33.140625 C 30.03125 33.277344 29.6875 33.382812 29.332031 33.453125 C 28.976562 33.523438 28.617188 33.5625 28.253906 33.5625 Z M 28.253906 33.5625 " fill-opacity="1" fill-rule="nonzero"/></g><g clip-path="url(#ad573fd6e9)"><path fill="#000000" d="M 13.902344 7.351562 C 13.800781 7.253906 13.746094 7.128906 13.742188 6.984375 C 13.738281 6.835938 13.789062 6.710938 13.890625 6.609375 C 13.992188 6.503906 14.113281 6.449219 14.261719 6.445312 C 14.40625 6.445312 14.53125 6.496094 14.636719 6.597656 C 15.078125 7.019531 15.574219 7.371094 16.117188 7.652344 C 16.660156 7.929688 17.230469 8.128906 17.832031 8.246094 C 18.433594 8.359375 19.035156 8.390625 19.644531 8.332031 C 20.253906 8.273438 20.839844 8.128906 21.40625 7.902344 C 22.167969 7.597656 22.84375 7.164062 23.433594 6.597656 C 23.539062 6.496094 23.664062 6.445312 23.808594 6.445312 C 23.953125 6.449219 24.078125 6.503906 24.179688 6.609375 C 24.28125 6.710938 24.332031 6.835938 24.328125 6.984375 C 24.324219 7.128906 24.273438 7.253906 24.167969 7.351562 C 23.824219 7.683594 23.453125 7.972656 23.054688 8.230469 C 22.65625 8.488281 22.238281 8.707031 21.796875 8.882812 C 21.359375 9.058594 20.90625 9.191406 20.441406 9.28125 C 19.976562 9.371094 19.507812 9.417969 19.035156 9.417969 C 18.5625 9.417969 18.09375 9.371094 17.628906 9.28125 C 17.164062 9.191406 16.710938 9.058594 16.273438 8.882812 C 15.832031 8.707031 15.414062 8.488281 15.015625 8.230469 C 14.617188 7.972656 14.246094 7.683594 13.902344 7.351562 Z M 13.902344 7.351562 " fill-opacity="1" fill-rule="nonzero"/></g></g></g><g transform="matrix(1, 0, 0, 1, 65, 47)"><g clip-path="url(#baa38825a2)"><g fill="#000000" fill-opacity="1"><g transform="translate(0.503126, 10.615991)"><g><path d="M 3.125 0.125 C 2.570312 0.125 2.097656 0.03125 1.703125 -0.15625 C 1.304688 -0.34375 0.96875 -0.59375 0.6875 -0.90625 L 1.234375 -1.390625 C 1.484375 -1.128906 1.757812 -0.925781 2.0625 -0.78125 C 2.363281 -0.632812 2.726562 -0.5625 3.15625 -0.5625 C 3.5625 -0.5625 3.894531 -0.632812 4.15625 -0.78125 C 4.414062 -0.925781 4.546875 -1.15625 4.546875 -1.46875 C 4.546875 -1.601562 4.519531 -1.71875 4.46875 -1.8125 C 4.425781 -1.90625 4.359375 -1.976562 4.265625 -2.03125 C 4.179688 -2.09375 4.082031 -2.132812 3.96875 -2.15625 C 3.863281 -2.1875 3.75 -2.210938 3.625 -2.234375 L 2.796875 -2.359375 C 2.609375 -2.390625 2.40625 -2.425781 2.1875 -2.46875 C 1.976562 -2.519531 1.785156 -2.597656 1.609375 -2.703125 C 1.429688 -2.804688 1.28125 -2.945312 1.15625 -3.125 C 1.039062 -3.300781 0.984375 -3.535156 0.984375 -3.828125 C 0.984375 -4.097656 1.035156 -4.328125 1.140625 -4.515625 C 1.242188 -4.710938 1.390625 -4.875 1.578125 -5 C 1.773438 -5.132812 2.003906 -5.234375 2.265625 -5.296875 C 2.523438 -5.367188 2.804688 -5.40625 3.109375 -5.40625 C 3.585938 -5.40625 4 -5.328125 4.34375 -5.171875 C 4.695312 -5.023438 5.003906 -4.816406 5.265625 -4.546875 L 4.734375 -4.046875 C 4.671875 -4.128906 4.59375 -4.207031 4.5 -4.28125 C 4.40625 -4.363281 4.289062 -4.4375 4.15625 -4.5 C 4.019531 -4.5625 3.863281 -4.613281 3.6875 -4.65625 C 3.507812 -4.695312 3.304688 -4.71875 3.078125 -4.71875 C 2.660156 -4.71875 2.34375 -4.644531 2.125 -4.5 C 1.90625 -4.351562 1.796875 -4.144531 1.796875 -3.875 C 1.796875 -3.738281 1.816406 -3.625 1.859375 -3.53125 C 1.910156 -3.4375 1.976562 -3.363281 2.0625 -3.3125 C 2.15625 -3.257812 2.257812 -3.21875 2.375 -3.1875 C 2.488281 -3.15625 2.601562 -3.128906 2.71875 -3.109375 L 3.546875 -2.984375 C 3.742188 -2.960938 3.945312 -2.925781 4.15625 -2.875 C 4.363281 -2.820312 4.554688 -2.742188 4.734375 -2.640625 C 4.910156 -2.535156 5.054688 -2.394531 5.171875 -2.21875 C 5.296875 -2.039062 5.359375 -1.8125 5.359375 -1.53125 C 5.359375 -1 5.15625 -0.585938 4.75 -0.296875 C 4.34375 -0.015625 3.800781 0.125 3.125 0.125 Z M 3.125 0.125 "/></g></g></g><g fill="#000000" fill-opacity="1"><g transform="translate(6.133615, 10.615991)"><g><path d="M 1.078125 -7.578125 L 1.890625 -7.578125 L 1.890625 -2.796875 L 1.9375 -2.796875 L 2.859375 -3.65625 L 4.609375 -5.28125 L 5.625 -5.28125 L 3.421875 -3.21875 L 5.875 0 L 4.859375 0 L 2.796875 -2.75 L 1.890625 -1.90625 L 1.890625 0 L 1.078125 0 Z M 1.078125 -7.578125 "/></g></g></g><g fill="#000000" fill-opacity="1"><g transform="translate(11.764104, 10.615991)"><g><path d="M 3.15625 0.125 C 2.78125 0.125 2.4375 0.0625 2.125 -0.0625 C 1.820312 -0.195312 1.5625 -0.382812 1.34375 -0.625 C 1.132812 -0.875 0.972656 -1.164062 0.859375 -1.5 C 0.742188 -1.832031 0.6875 -2.207031 0.6875 -2.625 C 0.6875 -3.050781 0.742188 -3.429688 0.859375 -3.765625 C 0.984375 -4.109375 1.148438 -4.398438 1.359375 -4.640625 C 1.566406 -4.890625 1.816406 -5.078125 2.109375 -5.203125 C 2.410156 -5.335938 2.742188 -5.40625 3.109375 -5.40625 C 3.460938 -5.40625 3.785156 -5.335938 4.078125 -5.203125 C 4.367188 -5.078125 4.613281 -4.898438 4.8125 -4.671875 C 5.019531 -4.441406 5.175781 -4.171875 5.28125 -3.859375 C 5.394531 -3.546875 5.453125 -3.203125 5.453125 -2.828125 L 5.453125 -2.4375 L 1.546875 -2.4375 L 1.546875 -2.1875 C 1.546875 -1.957031 1.582031 -1.742188 1.65625 -1.546875 C 1.726562 -1.347656 1.832031 -1.175781 1.96875 -1.03125 C 2.113281 -0.882812 2.285156 -0.769531 2.484375 -0.6875 C 2.691406 -0.613281 2.914062 -0.578125 3.15625 -0.578125 C 3.507812 -0.578125 3.816406 -0.660156 4.078125 -0.828125 C 4.335938 -0.992188 4.535156 -1.21875 4.671875 -1.5 L 5.28125 -1.09375 C 5.125 -0.738281 4.863281 -0.445312 4.5 -0.21875 C 4.132812 0.0078125 3.6875 0.125 3.15625 0.125 Z M 3.109375 -4.734375 C 2.890625 -4.734375 2.679688 -4.691406 2.484375 -4.609375 C 2.296875 -4.523438 2.128906 -4.410156 1.984375 -4.265625 C 1.847656 -4.117188 1.738281 -3.945312 1.65625 -3.75 C 1.582031 -3.5625 1.546875 -3.351562 1.546875 -3.125 L 1.546875 -3.046875 L 4.578125 -3.046875 L 4.578125 -3.15625 C 4.578125 -3.394531 4.539062 -3.609375 4.46875 -3.796875 C 4.394531 -3.984375 4.296875 -4.144531 4.171875 -4.28125 C 4.046875 -4.425781 3.890625 -4.535156 3.703125 -4.609375 C 3.523438 -4.691406 3.328125 -4.734375 3.109375 -4.734375 Z M 3.109375 -4.734375 "/></g></g></g><g fill="#000000" fill-opacity="1"><g transform="translate(17.394594, 10.615991)"><g><path d="M 4.3125 -0.859375 L 4.28125 -0.859375 C 4.226562 -0.734375 4.160156 -0.609375 4.078125 -0.484375 C 3.992188 -0.367188 3.890625 -0.265625 3.765625 -0.171875 C 3.648438 -0.0859375 3.507812 -0.0195312 3.34375 0.03125 C 3.175781 0.09375 2.988281 0.125 2.78125 0.125 C 2.21875 0.125 1.769531 -0.0507812 1.4375 -0.40625 C 1.101562 -0.757812 0.9375 -1.253906 0.9375 -1.890625 L 0.9375 -5.28125 L 1.765625 -5.28125 L 1.765625 -2.03125 C 1.765625 -1.550781 1.867188 -1.191406 2.078125 -0.953125 C 2.285156 -0.722656 2.597656 -0.609375 3.015625 -0.609375 C 3.171875 -0.609375 3.328125 -0.628906 3.484375 -0.671875 C 3.640625 -0.710938 3.78125 -0.769531 3.90625 -0.84375 C 4.03125 -0.925781 4.128906 -1.03125 4.203125 -1.15625 C 4.273438 -1.28125 4.3125 -1.429688 4.3125 -1.609375 L 4.3125 -5.28125 L 5.140625 -5.28125 L 5.140625 0 L 4.3125 0 Z M 3.5625 -7.828125 L 4.703125 -6.359375 L 4.234375 -6.046875 L 3.046875 -7.25 L 1.84375 -6.046875 L 1.40625 -6.359375 L 2.546875 -7.828125 Z M 3.5625 -7.828125 "/></g></g></g><g fill="#000000" fill-opacity="1"><g transform="translate(23.025083, 10.615991)"><g><path d="M 3.0625 0.125 C 2.695312 0.125 2.363281 0.0625 2.0625 -0.0625 C 1.769531 -0.195312 1.519531 -0.382812 1.3125 -0.625 C 1.101562 -0.875 0.941406 -1.164062 0.828125 -1.5 C 0.722656 -1.832031 0.671875 -2.210938 0.671875 -2.640625 C 0.671875 -3.054688 0.722656 -3.429688 0.828125 -3.765625 C 0.941406 -4.109375 1.101562 -4.398438 1.3125 -4.640625 C 1.519531 -4.890625 1.769531 -5.078125 2.0625 -5.203125 C 2.363281 -5.335938 2.695312 -5.40625 3.0625 -5.40625 C 3.4375 -5.40625 3.769531 -5.335938 4.0625 -5.203125 C 4.363281 -5.078125 4.617188 -4.890625 4.828125 -4.640625 C 5.035156 -4.398438 5.191406 -4.109375 5.296875 -3.765625 C 5.410156 -3.429688 5.46875 -3.054688 5.46875 -2.640625 C 5.46875 -2.210938 5.410156 -1.832031 5.296875 -1.5 C 5.191406 -1.164062 5.035156 -0.875 4.828125 -0.625 C 4.617188 -0.382812 4.363281 -0.195312 4.0625 -0.0625 C 3.769531 0.0625 3.4375 0.125 3.0625 0.125 Z M 3.0625 -0.578125 C 3.519531 -0.578125 3.890625 -0.710938 4.171875 -0.984375 C 4.453125 -1.265625 4.59375 -1.691406 4.59375 -2.265625 L 4.59375 -3.015625 C 4.59375 -3.585938 4.453125 -4.007812 4.171875 -4.28125 C 3.890625 -4.5625 3.519531 -4.703125 3.0625 -4.703125 C 2.613281 -4.703125 2.25 -4.5625 1.96875 -4.28125 C 1.6875 -4.007812 1.546875 -3.585938 1.546875 -3.015625 L 1.546875 -2.265625 C 1.546875 -1.691406 1.6875 -1.265625 1.96875 -0.984375 C 2.25 -0.710938 2.613281 -0.578125 3.0625 -0.578125 Z M 3.0625 -0.578125 "/></g></g></g><g clip-path="url(#b9e3b9729b)"><g fill="#000000" fill-opacity="1"><g transform="translate(28.655572, 10.615991)"><g><path d="M 3.125 0.125 C 2.570312 0.125 2.097656 0.03125 1.703125 -0.15625 C 1.304688 -0.34375 0.96875 -0.59375 0.6875 -0.90625 L 1.234375 -1.390625 C 1.484375 -1.128906 1.757812 -0.925781 2.0625 -0.78125 C 2.363281 -0.632812 2.726562 -0.5625 3.15625 -0.5625 C 3.5625 -0.5625 3.894531 -0.632812 4.15625 -0.78125 C 4.414062 -0.925781 4.546875 -1.15625 4.546875 -1.46875 C 4.546875 -1.601562 4.519531 -1.71875 4.46875 -1.8125 C 4.425781 -1.90625 4.359375 -1.976562 4.265625 -2.03125 C 4.179688 -2.09375 4.082031 -2.132812 3.96875 -2.15625 C 3.863281 -2.1875 3.75 -2.210938 3.625 -2.234375 L 2.796875 -2.359375 C 2.609375 -2.390625 2.40625 -2.425781 2.1875 -2.46875 C 1.976562 -2.519531 1.785156 -2.597656 1.609375 -2.703125 C 1.429688 -2.804688 1.28125 -2.945312 1.15625 -3.125 C 1.039062 -3.300781 0.984375 -3.535156 0.984375 -3.828125 C 0.984375 -4.097656 1.035156 -4.328125 1.140625 -4.515625 C 1.242188 -4.710938 1.390625 -4.875 1.578125 -5 C 1.773438 -5.132812 2.003906 -5.234375 2.265625 -5.296875 C 2.523438 -5.367188 2.804688 -5.40625 3.109375 -5.40625 C 3.585938 -5.40625 4 -5.328125 4.34375 -5.171875 C 4.695312 -5.023438 5.003906 -4.816406 5.265625 -4.546875 L 4.734375 -4.046875 C 4.671875 -4.128906 4.59375 -4.207031 4.5 -4.28125 C 4.40625 -4.363281 4.289062 -4.4375 4.15625 -4.5 C 4.019531 -4.5625 3.863281 -4.613281 3.6875 -4.65625 C 3.507812 -4.695312 3.304688 -4.71875 3.078125 -4.71875 C 2.660156 -4.71875 2.34375 -4.644531 2.125 -4.5 C 1.90625 -4.351562 1.796875 -4.144531 1.796875 -3.875 C 1.796875 -3.738281 1.816406 -3.625 1.859375 -3.53125 C 1.910156 -3.4375 1.976562 -3.363281 2.0625 -3.3125 C 2.15625 -3.257812 2.257812 -3.21875 2.375 -3.1875 C 2.488281 -3.15625 2.601562 -3.128906 2.71875 -3.109375 L 3.546875 -2.984375 C 3.742188 -2.960938 3.945312 -2.925781 4.15625 -2.875 C 4.363281 -2.820312 4.554688 -2.742188 4.734375 -2.640625 C 4.910156 -2.535156 5.054688 -2.394531 5.171875 -2.21875 C 5.296875 -2.039062 5.359375 -1.8125 5.359375 -1.53125 C 5.359375 -1 5.15625 -0.585938 4.75 -0.296875 C 4.34375 -0.015625 3.800781 0.125 3.125 0.125 Z M 3.125 0.125 "/></g></g></g></g></g></g><g mask="url(#0f20c0f19b)"><g transform="matrix(1, 0, 0, 1, 65, 59)"><g clip-path="url(#5cd0bf69c3)"><g clip-path="url(#3bf07d999d)"><g><g clip-path="url(#7e572f2ee1)"><g fill="#000000" fill-opacity="1"><g transform="translate(0.503126, 10.823998)"><g><path d="M 2.546875 0 L 0.65625 -5.28125 L 1.484375 -5.28125 L 2.234375 -3.0625 L 3.0625 -0.6875 L 3.09375 -0.6875 L 3.921875 -3.0625 L 4.671875 -5.28125 L 5.484375 -5.28125 L 3.59375 0 Z M 2.546875 0 "/></g></g></g><g fill="#000000" fill-opacity="1"><g transform="translate(6.133615, 10.823998)"><g><path d="M 3.15625 0.125 C 2.78125 0.125 2.4375 0.0625 2.125 -0.0625 C 1.820312 -0.195312 1.5625 -0.382812 1.34375 -0.625 C 1.132812 -0.875 0.972656 -1.164062 0.859375 -1.5 C 0.742188 -1.832031 0.6875 -2.207031 0.6875 -2.625 C 0.6875 -3.050781 0.742188 -3.429688 0.859375 -3.765625 C 0.984375 -4.109375 1.148438 -4.398438 1.359375 -4.640625 C 1.566406 -4.890625 1.816406 -5.078125 2.109375 -5.203125 C 2.410156 -5.335938 2.742188 -5.40625 3.109375 -5.40625 C 3.460938 -5.40625 3.785156 -5.335938 4.078125 -5.203125 C 4.367188 -5.078125 4.613281 -4.898438 4.8125 -4.671875 C 5.019531 -4.441406 5.175781 -4.171875 5.28125 -3.859375 C 5.394531 -3.546875 5.453125 -3.203125 5.453125 -2.828125 L 5.453125 -2.4375 L 1.546875 -2.4375 L 1.546875 -2.1875 C 1.546875 -1.957031 1.582031 -1.742188 1.65625 -1.546875 C 1.726562 -1.347656 1.832031 -1.175781 1.96875 -1.03125 C 2.113281 -0.882812 2.285156 -0.769531 2.484375 -0.6875 C 2.691406 -0.613281 2.914062 -0.578125 3.15625 -0.578125 C 3.507812 -0.578125 3.816406 -0.660156 4.078125 -0.828125 C 4.335938 -0.992188 4.535156 -1.21875 4.671875 -1.5 L 5.28125 -1.09375 C 5.125 -0.738281 4.863281 -0.445312 4.5 -0.21875 C 4.132812 0.0078125 3.6875 0.125 3.15625 0.125 Z M 3.109375 -4.734375 C 2.890625 -4.734375 2.679688 -4.691406 2.484375 -4.609375 C 2.296875 -4.523438 2.128906 -4.410156 1.984375 -4.265625 C 1.847656 -4.117188 1.738281 -3.945312 1.65625 -3.75 C 1.582031 -3.5625 1.546875 -3.351562 1.546875 -3.125 L 1.546875 -3.046875 L 4.578125 -3.046875 L 4.578125 -3.15625 C 4.578125 -3.394531 4.539062 -3.609375 4.46875 -3.796875 C 4.394531 -3.984375 4.296875 -4.144531 4.171875 -4.28125 C 4.046875 -4.425781 3.890625 -4.535156 3.703125 -4.609375 C 3.523438 -4.691406 3.328125 -4.734375 3.109375 -4.734375 Z M 3.109375 -4.734375 "/></g></g></g><g fill="#000000" fill-opacity="1"><g transform="translate(11.764104, 10.823998)"><g><path d="M 3.125 0.125 C 2.570312 0.125 2.097656 0.03125 1.703125 -0.15625 C 1.304688 -0.34375 0.96875 -0.59375 0.6875 -0.90625 L 1.234375 -1.390625 C 1.484375 -1.128906 1.757812 -0.925781 2.0625 -0.78125 C 2.363281 -0.632812 2.726562 -0.5625 3.15625 -0.5625 C 3.5625 -0.5625 3.894531 -0.632812 4.15625 -0.78125 C 4.414062 -0.925781 4.546875 -1.15625 4.546875 -1.46875 C 4.546875 -1.601562 4.519531 -1.71875 4.46875 -1.8125 C 4.425781 -1.90625 4.359375 -1.976562 4.265625 -2.03125 C 4.179688 -2.09375 4.082031 -2.132812 3.96875 -2.15625 C 3.863281 -2.1875 3.75 -2.210938 3.625 -2.234375 L 2.796875 -2.359375 C 2.609375 -2.390625 2.40625 -2.425781 2.1875 -2.46875 C 1.976562 -2.519531 1.785156 -2.597656 1.609375 -2.703125 C 1.429688 -2.804688 1.28125 -2.945312 1.15625 -3.125 C 1.039062 -3.300781 0.984375 -3.535156 0.984375 -3.828125 C 0.984375 -4.097656 1.035156 -4.328125 1.140625 -4.515625 C 1.242188 -4.710938 1.390625 -4.875 1.578125 -5 C 1.773438 -5.132812 2.003906 -5.234375 2.265625 -5.296875 C 2.523438 -5.367188 2.804688 -5.40625 3.109375 -5.40625 C 3.585938 -5.40625 4 -5.328125 4.34375 -5.171875 C 4.695312 -5.023438 5.003906 -4.816406 5.265625 -4.546875 L 4.734375 -4.046875 C 4.671875 -4.128906 4.59375 -4.207031 4.5 -4.28125 C 4.40625 -4.363281 4.289062 -4.4375 4.15625 -4.5 C 4.019531 -4.5625 3.863281 -4.613281 3.6875 -4.65625 C 3.507812 -4.695312 3.304688 -4.71875 3.078125 -4.71875 C 2.660156 -4.71875 2.34375 -4.644531 2.125 -4.5 C 1.90625 -4.351562 1.796875 -4.144531 1.796875 -3.875 C 1.796875 -3.738281 1.816406 -3.625 1.859375 -3.53125 C 1.910156 -3.4375 1.976562 -3.363281 2.0625 -3.3125 C 2.15625 -3.257812 2.257812 -3.21875 2.375 -3.1875 C 2.488281 -3.15625 2.601562 -3.128906 2.71875 -3.109375 L 3.546875 -2.984375 C 3.742188 -2.960938 3.945312 -2.925781 4.15625 -2.875 C 4.363281 -2.820312 4.554688 -2.742188 4.734375 -2.640625 C 4.910156 -2.535156 5.054688 -2.394531 5.171875 -2.21875 C 5.296875 -2.039062 5.359375 -1.8125 5.359375 -1.53125 C 5.359375 -1 5.15625 -0.585938 4.75 -0.296875 C 4.34375 -0.015625 3.800781 0.125 3.125 0.125 Z M 3.125 0.125 "/></g></g></g><g fill="#000000" fill-opacity="1"><g transform="translate(17.394594, 10.823998)"><g><path d="M 3.125 0.125 C 2.570312 0.125 2.097656 0.03125 1.703125 -0.15625 C 1.304688 -0.34375 0.96875 -0.59375 0.6875 -0.90625 L 1.234375 -1.390625 C 1.484375 -1.128906 1.757812 -0.925781 2.0625 -0.78125 C 2.363281 -0.632812 2.726562 -0.5625 3.15625 -0.5625 C 3.5625 -0.5625 3.894531 -0.632812 4.15625 -0.78125 C 4.414062 -0.925781 4.546875 -1.15625 4.546875 -1.46875 C 4.546875 -1.601562 4.519531 -1.71875 4.46875 -1.8125 C 4.425781 -1.90625 4.359375 -1.976562 4.265625 -2.03125 C 4.179688 -2.09375 4.082031 -2.132812 3.96875 -2.15625 C 3.863281 -2.1875 3.75 -2.210938 3.625 -2.234375 L 2.796875 -2.359375 C 2.609375 -2.390625 2.40625 -2.425781 2.1875 -2.46875 C 1.976562 -2.519531 1.785156 -2.597656 1.609375 -2.703125 C 1.429688 -2.804688 1.28125 -2.945312 1.15625 -3.125 C 1.039062 -3.300781 0.984375 -3.535156 0.984375 -3.828125 C 0.984375 -4.097656 1.035156 -4.328125 1.140625 -4.515625 C 1.242188 -4.710938 1.390625 -4.875 1.578125 -5 C 1.773438 -5.132812 2.003906 -5.234375 2.265625 -5.296875 C 2.523438 -5.367188 2.804688 -5.40625 3.109375 -5.40625 C 3.585938 -5.40625 4 -5.328125 4.34375 -5.171875 C 4.695312 -5.023438 5.003906 -4.816406 5.265625 -4.546875 L 4.734375 -4.046875 C 4.671875 -4.128906 4.59375 -4.207031 4.5 -4.28125 C 4.40625 -4.363281 4.289062 -4.4375 4.15625 -4.5 C 4.019531 -4.5625 3.863281 -4.613281 3.6875 -4.65625 C 3.507812 -4.695312 3.304688 -4.71875 3.078125 -4.71875 C 2.660156 -4.71875 2.34375 -4.644531 2.125 -4.5 C 1.90625 -4.351562 1.796875 -4.144531 1.796875 -3.875 C 1.796875 -3.738281 1.816406 -3.625 1.859375 -3.53125 C 1.910156 -3.4375 1.976562 -3.363281 2.0625 -3.3125 C 2.15625 -3.257812 2.257812 -3.21875 2.375 -3.1875 C 2.488281 -3.15625 2.601562 -3.128906 2.71875 -3.109375 L 3.546875 -2.984375 C 3.742188 -2.960938 3.945312 -2.925781 4.15625 -2.875 C 4.363281 -2.820312 4.554688 -2.742188 4.734375 -2.640625 C 4.910156 -2.535156 5.054688 -2.394531 5.171875 -2.21875 C 5.296875 -2.039062 5.359375 -1.8125 5.359375 -1.53125 C 5.359375 -1 5.15625 -0.585938 4.75 -0.296875 C 4.34375 -0.015625 3.800781 0.125 3.125 0.125 Z M 3.125 0.125 "/></g></g></g><g fill="#000000" fill-opacity="1"><g transform="translate(23.025083, 10.823998)"><g><path d="M 3.15625 0.125 C 2.78125 0.125 2.4375 0.0625 2.125 -0.0625 C 1.820312 -0.195312 1.5625 -0.382812 1.34375 -0.625 C 1.132812 -0.875 0.972656 -1.164062 0.859375 -1.5 C 0.742188 -1.832031 0.6875 -2.207031 0.6875 -2.625 C 0.6875 -3.050781 0.742188 -3.429688 0.859375 -3.765625 C 0.984375 -4.109375 1.148438 -4.398438 1.359375 -4.640625 C 1.566406 -4.890625 1.816406 -5.078125 2.109375 -5.203125 C 2.410156 -5.335938 2.742188 -5.40625 3.109375 -5.40625 C 3.460938 -5.40625 3.785156 -5.335938 4.078125 -5.203125 C 4.367188 -5.078125 4.613281 -4.898438 4.8125 -4.671875 C 5.019531 -4.441406 5.175781 -4.171875 5.28125 -3.859375 C 5.394531 -3.546875 5.453125 -3.203125 5.453125 -2.828125 L 5.453125 -2.4375 L 1.546875 -2.4375 L 1.546875 -2.1875 C 1.546875 -1.957031 1.582031 -1.742188 1.65625 -1.546875 C 1.726562 -1.347656 1.832031 -1.175781 1.96875 -1.03125 C 2.113281 -0.882812 2.285156 -0.769531 2.484375 -0.6875 C 2.691406 -0.613281 2.914062 -0.578125 3.15625 -0.578125 C 3.507812 -0.578125 3.816406 -0.660156 4.078125 -0.828125 C 4.335938 -0.992188 4.535156 -1.21875 4.671875 -1.5 L 5.28125 -1.09375 C 5.125 -0.738281 4.863281 -0.445312 4.5 -0.21875 C 4.132812 0.0078125 3.6875 0.125 3.15625 0.125 Z M 3.109375 -4.734375 C 2.890625 -4.734375 2.679688 -4.691406 2.484375 -4.609375 C 2.296875 -4.523438 2.128906 -4.410156 1.984375 -4.265625 C 1.847656 -4.117188 1.738281 -3.945312 1.65625 -3.75 C 1.582031 -3.5625 1.546875 -3.351562 1.546875 -3.125 L 1.546875 -3.046875 L 4.578125 -3.046875 L 4.578125 -3.15625 C 4.578125 -3.394531 4.539062 -3.609375 4.46875 -3.796875 C 4.394531 -3.984375 4.296875 -4.144531 4.171875 -4.28125 C 4.046875 -4.425781 3.890625 -4.535156 3.703125 -4.609375 C 3.523438 -4.691406 3.328125 -4.734375 3.109375 -4.734375 Z M 3.109375 -4.734375 "/></g></g></g><g fill="#000000" fill-opacity="1"><g transform="translate(28.655572, 10.823998)"><g><path d="M 0.8125 -0.703125 L 2.65625 -0.703125 L 2.65625 -6.875 L 0.8125 -6.875 L 0.8125 -7.578125 L 3.484375 -7.578125 L 3.484375 -0.703125 L 5.328125 -0.703125 L 5.328125 0 L 0.8125 0 Z M 0.8125 -0.703125 "/></g></g></g></g></g></g></g></g></g></svg>